class.ufo
<glyph name="exclam" format="2">
  <advance width="182"/>
  <unicode hex="0021"/>
  <outline>
    <contour>
      <point x="45" y="182"/>
      <point x="136" y="182"/>
      <point x="136" y="727"/>
      <point x="45" y="727"/>
    </contour>
    <contour>
      <point x="45" y="0"/>
      <point x="136" y="0"/>
      <point x="136" y="91"/>
      <point x="45" y="91"/>
    </contour>
  </outline>
</glyph>
<glyph name="quotedbl" format="2">
  <advance width="364"/>
  <unicode hex="0022"/>
  <outline>
    <contour>
      <point x="45" y="409"/>
      <point x="136" y="409"/>
      <point x="136" y="727"/>
      <point x="45" y="727"/>
    </contour>
    <contour>
      <point x="227" y="409"/>
      <point x="318" y="409"/>
      <point x="318" y="727"/>
      <point x="227" y="727"/>
    </contour>
  </outline>
</glyph>
<glyph name="quotesingle" format="2">
  <advance width="273"/>
  <unicode hex="0027"/>
  <outline>
    <contour>
      <point x="91" y="409"/>
      <point x="182" y="409"/>
      <point x="182" y="727"/>
      <point x="91" y="727"/>
    </contour>
  </outline>
</glyph>
<glyph name="parenleft" format="2">
  <advance width="364"/>
  <unicode hex="0028"/>
  <outline>
    <contour>
      <point x="45" y="-91"/>
      <point x="91" y="-91"/>
      <point x="91" y="-136"/>
      <point x="136" y="-136"/>
      <point x="136" y="-182"/>
      <point x="318" y="-182"/>
      <point x="318" y="-91"/>
      <point x="182" y="-91"/>
      <point x="182" y="-45"/>
      <point x="136" y="-45"/>
      <point x="136" y="591"/>
      <point x="182" y="591"/>
      <point x="182" y="636"/>
      <point x="318" y="636"/>
      <point x="318" y="727"/>
      <point x="136" y="727"/>
      <point x="136" y="682"/>
      <point x="91" y="682"/>
      <point x="91" y="636"/>
      <point x="45" y="636"/>
    </contour>
  </outline>
</glyph>
<glyph name="hyphen" format="2">
  <advance width="409"/>
  <unicode hex="002D"/>
  <outline>
    <contour>
      <point x="45" y="227"/>
      <point x="364" y="227"/>
      <point x="364" y="318"/>
      <point x="45" y="318"/>
    </contour>
  </outline>
</glyph>
<glyph name="period" format="2">
  <advance width="182"/>
  <unicode hex="002E"/>
  <outline>
    <contour>
      <point x="45" y="0"/>
      <point x="136" y="0"/>
      <point x="136" y="91"/>
      <point x="45" y="91"/>
    </contour>
  </outline>
</glyph>
<glyph name="zero" format="2">
  <advance width="636"/>
  <unicode hex="0030"/>
  <outline>
    <contour>
      <point x="45" y="182"/>
      <point x="91" y="182"/>
      <point x="91" y="91"/>
      <point x="136" y="91"/>
      <point x="136" y="45"/>
      <point x="227" y="45"/>
      <point x="227" y="0"/>
      <point x="409" y="0"/>
      <point x="409" y="45"/>
      <point x="500" y="45"/>
      <point x="500" y="91"/>
      <point x="545" y="91"/>
      <point x="545" y="227"/>
      <point x="591" y="227"/>
      <point x="591" y="545"/>
      <point x="545" y="545"/>
      <point x="545" y="636"/>
      <point x="500" y="636"/>
      <point x="500" y="682"/>
      <point x="409" y="682"/>
      <point x="409" y="727"/>
      <point x="227" y="727"/>
      <point x="227" y="682"/>
      <point x="136" y="682"/>
      <point x="136" y="636"/>
      <point x="91" y="636"/>
      <point x="91" y="545"/>
      <point x="45" y="545"/>
    </contour>
    <contour>
      <point x="136" y="500"/>
      <point x="182" y="500"/>
      <point x="182" y="591"/>
      <point x="227" y="591"/>
      <point x="227" y="636"/>
      <point x="409" y="636"/>
      <point x="409" y="591"/>
      <point x="455" y="591"/>
      <point x="455" y="500"/>
      <point x="500" y="500"/>
      <point x="500" y="227"/>
      <point x="455" y="227"/>
      <point x="455" y="136"/>
      <point x="409" y="136"/>
      <point x="409" y="91"/>
      <point x="227" y="91"/>
      <point x="227" y="136"/>
      <point x="182" y="136"/>
      <point x="182" y="227"/>
      <point x="136" y="227"/>
    </contour>
  </outline>
</glyph>
<glyph name="one" format="2">
  <advance width="318"/>
  <unicode hex="0031"/>
  <outline>
    <contour>
      <point x="45" y="500"/>
      <point x="182" y="500"/>
      <point x="182" y="0"/>
      <point x="273" y="0"/>
      <point x="273" y="727"/>
      <point x="182" y="727"/>
      <point x="182" y="591"/>
      <point x="45" y="591"/>
    </contour>
  </outline>
</glyph>
<glyph name="two" format="2">
  <advance width="545"/>
  <unicode hex="0032"/>
  <outline>
    <contour>
      <point x="45" y="0"/>
      <point x="500" y="0"/>
      <point x="500" y="91"/>
      <point x="136" y="91"/>
      <point x="136" y="136"/>
      <point x="182" y="136"/>
      <point x="182" y="182"/>
      <point x="227" y="182"/>
      <point x="227" y="227"/>
      <point x="273" y="227"/>
      <point x="273" y="273"/>
      <point x="364" y="273"/>
      <point x="364" y="318"/>
      <point x="409" y="318"/>
      <point x="409" y="364"/>
      <point x="455" y="364"/>
      <point x="455" y="409"/>
      <point x="500" y="409"/>
      <point x="500" y="591"/>
      <point x="455" y="591"/>
      <point x="455" y="682"/>
      <point x="364" y="682"/>
      <point x="364" y="727"/>
      <point x="182" y="727"/>
      <point x="182" y="682"/>
      <point x="91" y="682"/>
      <point x="91" y="591"/>
      <point x="45" y="591"/>
      <point x="45" y="455"/>
      <point x="136" y="455"/>
      <point x="136" y="591"/>
      <point x="182" y="591"/>
      <point x="182" y="636"/>
      <point x="364" y="636"/>
      <point x="364" y="591"/>
      <point x="409" y="591"/>
      <point x="409" y="455"/>
      <point x="364" y="455"/>
      <point x="364" y="409"/>
      <point x="318" y="409"/>
      <point x="318" y="364"/>
      <point x="273" y="364"/>
      <point x="273" y="318"/>
      <point x="182" y="318"/>
      <point x="182" y="273"/>
      <point x="136" y="273"/>
      <point x="136" y="227"/>
      <point x="91" y="227"/>
      <point x="91" y="182"/>
      <point x="45" y="182"/>
    </contour>
  </outline>
</glyph>
<glyph name="three" format="2">
  <advance width="545"/>
  <unicode hex="0033"/>
  <outline>
    <contour>
      <point x="45" y="91"/>
      <point x="91" y="91"/>
      <point x="91" y="45"/>
      <point x="182" y="45"/>
      <point x="182" y="0"/>
      <point x="364" y="0"/>
      <point x="364" y="45"/>
      <point x="455" y="45"/>
      <point x="455" y="91"/>
      <point x="500" y="91"/>
      <point x="500" y="318"/>
      <point x="455" y="318"/>
      <point x="455" y="409"/>
      <point x="500" y="409"/>
      <point x="500" y="636"/>
      <point x="455" y="636"/>
      <point x="455" y="682"/>
      <point x="409" y="682"/>
      <point x="409" y="727"/>
      <point x="182" y="727"/>
      <point x="182" y="682"/>
      <point x="91" y="682"/>
      <point x="91" y="636"/>
      <point x="45" y="636"/>
      <point x="45" y="455"/>
      <point x="136" y="455"/>
      <point x="136" y="591"/>
      <point x="182" y="591"/>
      <point x="182" y="636"/>
      <point x="364" y="636"/>
      <point x="364" y="591"/>
      <point x="409" y="591"/>
      <point x="409" y="455"/>
      <point x="364" y="455"/>
      <point x="364" y="409"/>
      <point x="182" y="409"/>
      <point x="182" y="318"/>
      <point x="364" y="318"/>
      <point x="364" y="273"/>
      <point x="409" y="273"/>
      <point x="409" y="136"/>
      <point x="364" y="136"/>
      <point x="364" y="91"/>
      <point x="182" y="91"/>
      <point x="182" y="136"/>
      <point x="136" y="136"/>
      <point x="136" y="227"/>
      <point x="45" y="227"/>
    </contour>
  </outline>
</glyph>
<glyph name="four" format="2">
  <advance width="591"/>
  <unicode hex="0034"/>
  <outline>
    <contour>
      <point x="45" y="182"/>
      <point x="364" y="182"/>
      <point x="364" y="0"/>
      <point x="455" y="0"/>
      <point x="455" y="182"/>
      <point x="545" y="182"/>
      <point x="545" y="273"/>
      <point x="455" y="273"/>
      <point x="455" y="727"/>
      <point x="318" y="727"/>
      <point x="318" y="636"/>
      <point x="273" y="636"/>
      <point x="273" y="591"/>
      <point x="227" y="591"/>
      <point x="227" y="500"/>
      <point x="182" y="500"/>
      <point x="182" y="455"/>
      <point x="136" y="455"/>
      <point x="136" y="364"/>
      <point x="91" y="364"/>
      <point x="91" y="318"/>
      <point x="45" y="318"/>
    </contour>
    <contour>
      <point x="136" y="318"/>
      <point x="182" y="318"/>
      <point x="182" y="364"/>
      <point x="227" y="364"/>
      <point x="227" y="455"/>
      <point x="273" y="455"/>
      <point x="273" y="500"/>
      <point x="318" y="500"/>
      <point x="318" y="591"/>
      <point x="364" y="591"/>
      <point x="364" y="273"/>
      <point x="136" y="273"/>
    </contour>
  </outline>
</glyph>
<glyph name="five" format="2">
  <advance width="545"/>
  <unicode hex="0035"/>
  <outline>
    <contour>
      <point x="45" y="91"/>
      <point x="91" y="91"/>
      <point x="91" y="45"/>
      <point x="182" y="45"/>
      <point x="182" y="0"/>
      <point x="364" y="0"/>
      <point x="364" y="45"/>
      <point x="455" y="45"/>
      <point x="455" y="136"/>
      <point x="500" y="136"/>
      <point x="500" y="318"/>
      <point x="455" y="318"/>
      <point x="455" y="409"/>
      <point x="364" y="409"/>
      <point x="364" y="455"/>
      <point x="182" y="455"/>
      <point x="182" y="409"/>
      <point x="136" y="409"/>
      <point x="136" y="545"/>
      <point x="182" y="545"/>
      <point x="182" y="636"/>
      <point x="455" y="636"/>
      <point x="455" y="727"/>
      <point x="91" y="727"/>
      <point x="91" y="545"/>
      <point x="45" y="545"/>
      <point x="45" y="318"/>
      <point x="182" y="318"/>
      <point x="182" y="364"/>
      <point x="364" y="364"/>
      <point x="364" y="318"/>
      <point x="409" y="318"/>
      <point x="409" y="136"/>
      <point x="364" y="136"/>
      <point x="364" y="91"/>
      <point x="182" y="91"/>
      <point x="182" y="136"/>
      <point x="136" y="136"/>
      <point x="136" y="227"/>
      <point x="45" y="227"/>
    </contour>
  </outline>
</glyph>
<glyph name="six" format="2">
  <advance width="591"/>
  <unicode hex="0036"/>
  <outline>
    <contour>
      <point x="45" y="182"/>
      <point x="91" y="182"/>
      <point x="91" y="91"/>
      <point x="136" y="91"/>
      <point x="136" y="45"/>
      <point x="182" y="45"/>
      <point x="182" y="0"/>
      <point x="409" y="0"/>
      <point x="409" y="45"/>
      <point x="500" y="45"/>
      <point x="500" y="136"/>
      <point x="545" y="136"/>
      <point x="545" y="318"/>
      <point x="500" y="318"/>
      <point x="500" y="409"/>
      <point x="409" y="409"/>
      <point x="409" y="455"/>
      <point x="227" y="455"/>
      <point x="227" y="409"/>
      <point x="136" y="409"/>
      <point x="136" y="500"/>
      <point x="182" y="500"/>
      <point x="182" y="591"/>
      <point x="227" y="591"/>
      <point x="227" y="636"/>
      <point x="409" y="636"/>
      <point x="409" y="591"/>
      <point x="455" y="591"/>
      <point x="455" y="500"/>
      <point x="545" y="500"/>
      <point x="545" y="591"/>
      <point x="500" y="591"/>
      <point x="500" y="682"/>
      <point x="409" y="682"/>
      <point x="409" y="727"/>
      <point x="227" y="727"/>
      <point x="227" y="682"/>
      <point x="136" y="682"/>
      <point x="136" y="636"/>
      <point x="91" y="636"/>
      <point x="91" y="545"/>
      <point x="45" y="545"/>
    </contour>
    <contour>
      <point x="182" y="318"/>
      <point x="227" y="318"/>
      <point x="227" y="364"/>
      <point x="409" y="364"/>
      <point x="409" y="273"/>
      <point x="455" y="273"/>
      <point x="455" y="182"/>
      <point x="409" y="182"/>
      <point x="409" y="91"/>
      <point x="227" y="91"/>
      <point x="227" y="136"/>
      <point x="182" y="136"/>
    </contour>
  </outline>
</glyph>
<glyph name="seven" format="2">
  <advance width="545"/>
  <unicode hex="0037"/>
  <outline>
    <contour>
      <point x="45" y="636"/>
      <point x="409" y="636"/>
      <point x="409" y="591"/>
      <point x="364" y="591"/>
      <point x="364" y="545"/>
      <point x="318" y="545"/>
      <point x="318" y="500"/>
      <point x="273" y="500"/>
      <point x="273" y="409"/>
      <point x="227" y="409"/>
      <point x="227" y="273"/>
      <point x="182" y="273"/>
      <point x="182" y="0"/>
      <point x="273" y="0"/>
      <point x="273" y="273"/>
      <point x="318" y="273"/>
      <point x="318" y="409"/>
      <point x="364" y="409"/>
      <point x="364" y="500"/>
      <point x="409" y="500"/>
      <point x="409" y="545"/>
      <point x="455" y="545"/>
      <point x="455" y="591"/>
      <point x="500" y="591"/>
      <point x="500" y="727"/>
      <point x="45" y="727"/>
    </contour>
  </outline>
</glyph>
<glyph name="nine" format="2">
  <advance width="591"/>
  <unicode hex="0039"/>
  <outline>
    <contour>
      <point x="45" y="136"/>
      <point x="91" y="136"/>
      <point x="91" y="45"/>
      <point x="182" y="45"/>
      <point x="182" y="0"/>
      <point x="364" y="0"/>
      <point x="364" y="45"/>
      <point x="455" y="45"/>
      <point x="455" y="91"/>
      <point x="500" y="91"/>
      <point x="500" y="182"/>
      <point x="545" y="182"/>
      <point x="545" y="545"/>
      <point x="500" y="545"/>
      <point x="500" y="636"/>
      <point x="455" y="636"/>
      <point x="455" y="682"/>
      <point x="409" y="682"/>
      <point x="409" y="727"/>
      <point x="182" y="727"/>
      <point x="182" y="682"/>
      <point x="91" y="682"/>
      <point x="91" y="591"/>
      <point x="45" y="591"/>
      <point x="45" y="409"/>
      <point x="91" y="409"/>
      <point x="91" y="318"/>
      <point x="182" y="318"/>
      <point x="182" y="273"/>
      <point x="364" y="273"/>
      <point x="364" y="318"/>
      <point x="455" y="318"/>
      <point x="455" y="227"/>
      <point x="409" y="227"/>
      <point x="409" y="136"/>
      <point x="364" y="136"/>
      <point x="364" y="91"/>
      <point x="182" y="91"/>
      <point x="182" y="136"/>
      <point x="136" y="136"/>
      <point x="136" y="227"/>
      <point x="45" y="227"/>
    </contour>
    <contour>
      <point x="136" y="545"/>
      <point x="182" y="545"/>
      <point x="182" y="636"/>
      <point x="364" y="636"/>
      <point x="364" y="591"/>
      <point x="409" y="591"/>
      <point x="409" y="409"/>
      <point x="364" y="409"/>
      <point x="364" y="364"/>
      <point x="182" y="364"/>
      <point x="182" y="455"/>
      <point x="136" y="455"/>
    </contour>
  </outline>
</glyph>
<glyph name="colon" format="2">
  <advance width="182"/>
  <unicode hex="003A"/>
  <outline>
    <contour>
      <point x="45" y="409"/>
      <point x="136" y="409"/>
      <point x="136" y="500"/>
      <point x="45" y="500"/>
    </contour>
    <contour>
      <point x="45" y="0"/>
      <point x="136" y="0"/>
      <point x="136" y="91"/>
      <point x="45" y="91"/>
    </contour>
  </outline>
</glyph>
<glyph name="semicolon" format="2">
  <advance width="182"/>
  <unicode hex="003B"/>
  <outline>
    <contour>
      <point x="45" y="409"/>
      <point x="136" y="409"/>
      <point x="136" y="500"/>
      <point x="45" y="500"/>
    </contour>
    <contour>
      <point x="0" y="-91"/>
      <point x="91" y="-91"/>
      <point x="91" y="-45"/>
      <point x="136" y="-45"/>
      <point x="136" y="91"/>
      <point x="45" y="91"/>
      <point x="45" y="-45"/>
      <point x="0" y="-45"/>
    </contour>
  </outline>
</glyph>
<glyph name="D" format="2">
  <advance width="636"/>
  <unicode hex="0044"/>
  <outline>
    <contour>
      <point x="45" y="0"/>
      <point x="364" y="0"/>
      <point x="364" y="45"/>
      <point x="455" y="45"/>
      <point x="455" y="91"/>
      <point x="500" y="91"/>
      <point x="500" y="136"/>
      <point x="545" y="136"/>
      <point x="545" y="227"/>
      <point x="591" y="227"/>
      <point x="591" y="500"/>
      <point x="545" y="500"/>
      <point x="545" y="591"/>
      <point x="500" y="591"/>
      <point x="500" y="636"/>
      <point x="455" y="636"/>
      <point x="455" y="682"/>
      <point x="364" y="682"/>
      <point x="364" y="727"/>
      <point x="45" y="727"/>
    </contour>
    <contour>
      <point x="136" y="636"/>
      <point x="364" y="636"/>
      <point x="364" y="591"/>
      <point x="409" y="591"/>
      <point x="409" y="545"/>
      <point x="455" y="545"/>
      <point x="455" y="455"/>
      <point x="500" y="455"/>
      <point x="500" y="273"/>
      <point x="455" y="273"/>
      <point x="455" y="182"/>
      <point x="409" y="182"/>
      <point x="409" y="136"/>
      <point x="364" y="136"/>
      <point x="364" y="91"/>
      <point x="136" y="91"/>
    </contour>
  </outline>
</glyph>
<glyph name="E" format="2">
  <advance width="500"/>
  <unicode hex="0045"/>
  <outline>
    <contour>
      <point x="45" y="0"/>
      <point x="455" y="0"/>
      <point x="455" y="91"/>
      <point x="136" y="91"/>
      <point x="136" y="318"/>
      <point x="455" y="318"/>
      <point x="455" y="409"/>
      <point x="136" y="409"/>
      <point x="136" y="636"/>
      <point x="455" y="636"/>
      <point x="455" y="727"/>
      <point x="45" y="727"/>
    </contour>
  </outline>
</glyph>
<glyph name="F" format="2">
  <advance width="455"/>
  <unicode hex="0046"/>
  <outline>
    <contour>
      <point x="45" y="0"/>
      <point x="136" y="0"/>
      <point x="136" y="318"/>
      <point x="455" y="318"/>
      <point x="455" y="409"/>
      <point x="136" y="409"/>
      <point x="136" y="636"/>
      <point x="455" y="636"/>
      <point x="455" y="727"/>
      <point x="45" y="727"/>
    </contour>
  </outline>
</glyph>
<glyph name="H" format="2">
  <advance width="636"/>
  <unicode hex="0048"/>
  <outline>
    <contour>
      <point x="45" y="0"/>
      <point x="136" y="0"/>
      <point x="136" y="318"/>
      <point x="500" y="318"/>
      <point x="500" y="0"/>
      <point x="591" y="0"/>
      <point x="591" y="727"/>
      <point x="500" y="727"/>
      <point x="500" y="409"/>
      <point x="136" y="409"/>
      <point x="136" y="727"/>
      <point x="45" y="727"/>
    </contour>
  </outline>
</glyph>
<glyph name="I" format="2">
  <advance width="182"/>
  <unicode hex="0049"/>
  <outline>
    <contour>
      <point x="45" y="0"/>
      <point x="136" y="0"/>
      <point x="136" y="727"/>
      <point x="45" y="727"/>
    </contour>
  </outline>
</glyph>
<glyph name="J" format="2">
  <advance width="273"/>
  <unicode hex="004A"/>
  <outline>
    <contour>
      <point x="0" y="0"/>
      <point x="136" y="0"/>
      <point x="136" y="45"/>
      <point x="227" y="45"/>
      <point x="227" y="727"/>
      <point x="136" y="727"/>
      <point x="136" y="91"/>
      <point x="0" y="91"/>
    </contour>
  </outline>
</glyph>
<glyph name="L" format="2">
  <advance width="455"/>
  <unicode hex="004C"/>
  <outline>
    <contour>
      <point x="45" y="0"/>
      <point x="455" y="0"/>
      <point x="455" y="91"/>
      <point x="136" y="91"/>
      <point x="136" y="727"/>
      <point x="45" y="727"/>
    </contour>
  </outline>
</glyph>
<glyph name="M" format="2">
  <advance width="773"/>
  <unicode hex="004D"/>
  <outline>
    <contour>
      <point x="45" y="0"/>
      <point x="136" y="0"/>
      <point x="136" y="545"/>
      <point x="182" y="545"/>
      <point x="182" y="409"/>
      <point x="227" y="409"/>
      <point x="227" y="273"/>
      <point x="273" y="273"/>
      <point x="273" y="136"/>
      <point x="318" y="136"/>
      <point x="318" y="0"/>
      <point x="455" y="0"/>
      <point x="455" y="136"/>
      <point x="500" y="136"/>
      <point x="500" y="273"/>
      <point x="545" y="273"/>
      <point x="545" y="409"/>
      <point x="591" y="409"/>
      <point x="591" y="545"/>
      <point x="636" y="545"/>
      <point x="636" y="0"/>
      <point x="727" y="0"/>
      <point x="727" y="727"/>
      <point x="591" y="727"/>
      <point x="591" y="682"/>
      <point x="545" y="682"/>
      <point x="545" y="545"/>
      <point x="500" y="545"/>
      <point x="500" y="409"/>
      <point x="455" y="409"/>
      <point x="455" y="273"/>
      <point x="409" y="273"/>
      <point x="409" y="136"/>
      <point x="364" y="136"/>
      <point x="364" y="273"/>
      <point x="318" y="273"/>
      <point x="318" y="409"/>
      <point x="273" y="409"/>
      <point x="273" y="545"/>
      <point x="227" y="545"/>
      <point x="227" y="682"/>
      <point x="182" y="682"/>
      <point x="182" y="727"/>
      <point x="45" y="727"/>
    </contour>
  </outline>
</glyph>
<glyph name="P" format="2">
  <advance width="591"/>
  <unicode hex="0050"/>
  <outline>
    <contour>
      <point x="45" y="0"/>
      <point x="136" y="0"/>
      <point x="136" y="227"/>
      <point x="409" y="227"/>
      <point x="409" y="273"/>
      <point x="455" y="273"/>
      <point x="455" y="318"/>
      <point x="500" y="318"/>
      <point x="500" y="364"/>
      <point x="545" y="364"/>
      <point x="545" y="591"/>
      <point x="500" y="591"/>
      <point x="500" y="636"/>
      <point x="455" y="636"/>
      <point x="455" y="682"/>
      <point x="409" y="682"/>
      <point x="409" y="727"/>
      <point x="45" y="727"/>
    </contour>
    <contour>
      <point x="136" y="636"/>
      <point x="364" y="636"/>
      <point x="364" y="591"/>
      <point x="409" y="591"/>
      <point x="409" y="545"/>
      <point x="455" y="545"/>
      <point x="455" y="409"/>
      <point x="409" y="409"/>
      <point x="409" y="364"/>
      <point x="364" y="364"/>
      <point x="364" y="318"/>
      <point x="136" y="318"/>
    </contour>
  </outline>
</glyph>
<glyph name="R" format="2">
  <advance width="636"/>
  <unicode hex="0052"/>
  <outline>
    <contour>
      <point x="45" y="0"/>
      <point x="136" y="0"/>
      <point x="136" y="273"/>
      <point x="364" y="273"/>
      <point x="364" y="227"/>
      <point x="409" y="227"/>
      <point x="409" y="136"/>
      <point x="455" y="136"/>
      <point x="455" y="45"/>
      <point x="500" y="45"/>
      <point x="500" y="0"/>
      <point x="591" y="0"/>
      <point x="591" y="45"/>
      <point x="545" y="45"/>
      <point x="545" y="136"/>
      <point x="500" y="136"/>
      <point x="500" y="227"/>
      <point x="455" y="227"/>
      <point x="455" y="273"/>
      <point x="409" y="273"/>
      <point x="409" y="318"/>
      <point x="455" y="318"/>
      <point x="455" y="364"/>
      <point x="500" y="364"/>
      <point x="500" y="409"/>
      <point x="545" y="409"/>
      <point x="545" y="636"/>
      <point x="500" y="636"/>
      <point x="500" y="682"/>
      <point x="409" y="682"/>
      <point x="409" y="727"/>
      <point x="45" y="727"/>
    </contour>
    <contour>
      <point x="136" y="636"/>
      <point x="409" y="636"/>
      <point x="409" y="591"/>
      <point x="455" y="591"/>
      <point x="455" y="409"/>
      <point x="409" y="409"/>
      <point x="409" y="364"/>
      <point x="136" y="364"/>
    </contour>
  </outline>
</glyph>
<glyph name="S" format="2">
  <advance width="591"/>
  <unicode hex="0053"/>
  <outline>
    <contour>
      <point x="45" y="136"/>
      <point x="91" y="136"/>
      <point x="91" y="91"/>
      <point x="136" y="91"/>
      <point x="136" y="45"/>
      <point x="182" y="45"/>
      <point x="182" y="0"/>
      <point x="409" y="0"/>
      <point x="409" y="45"/>
      <point x="500" y="45"/>
      <point x="500" y="91"/>
      <point x="545" y="91"/>
      <point x="545" y="273"/>
      <point x="500" y="273"/>
      <point x="500" y="364"/>
      <point x="409" y="364"/>
      <point x="409" y="409"/>
      <point x="273" y="409"/>
      <point x="273" y="455"/>
      <point x="182" y="455"/>
      <point x="182" y="500"/>
      <point x="136" y="500"/>
      <point x="136" y="591"/>
      <point x="182" y="591"/>
      <point x="182" y="636"/>
      <point x="364" y="636"/>
      <point x="364" y="591"/>
      <point x="409" y="591"/>
      <point x="409" y="545"/>
      <point x="455" y="545"/>
      <point x="455" y="500"/>
      <point x="545" y="500"/>
      <point x="545" y="591"/>
      <point x="500" y="591"/>
      <point x="500" y="636"/>
      <point x="455" y="636"/>
      <point x="455" y="682"/>
      <point x="409" y="682"/>
      <point x="409" y="727"/>
      <point x="182" y="727"/>
      <point x="182" y="682"/>
      <point x="91" y="682"/>
      <point x="91" y="636"/>
      <point x="45" y="636"/>
      <point x="45" y="455"/>
      <point x="91" y="455"/>
      <point x="91" y="409"/>
      <point x="136" y="409"/>
      <point x="136" y="364"/>
      <point x="273" y="364"/>
      <point x="273" y="318"/>
      <point x="364" y="318"/>
      <point x="364" y="273"/>
      <point x="455" y="273"/>
      <point x="455" y="136"/>
      <point x="409" y="136"/>
      <point x="409" y="91"/>
      <point x="227" y="91"/>
      <point x="227" y="136"/>
      <point x="182" y="136"/>
      <point x="182" y="182"/>
      <point x="136" y="182"/>
      <point x="136" y="273"/>
      <point x="45" y="273"/>
    </contour>
  </outline>
</glyph>
<glyph name="T" format="2">
  <advance width="636"/>
  <unicode hex="0054"/>
  <outline>
    <contour>
      <point x="45" y="636"/>
      <point x="273" y="636"/>
      <point x="273" y="0"/>
      <point x="364" y="0"/>
      <point x="364" y="636"/>
      <point x="591" y="636"/>
      <point x="591" y="727"/>
      <point x="45" y="727"/>
    </contour>
  </outline>
</glyph>
<glyph name="X" format="2">
  <advance width="727"/>
  <unicode hex="0058"/>
  <outline>
    <contour>
      <point x="45" y="0"/>
      <point x="182" y="0"/>
      <point x="182" y="45"/>
      <point x="227" y="45"/>
      <point x="227" y="136"/>
      <point x="273" y="136"/>
      <point x="273" y="182"/>
      <point x="318" y="182"/>
      <point x="318" y="273"/>
      <point x="409" y="273"/>
      <point x="409" y="182"/>
      <point x="455" y="182"/>
      <point x="455" y="136"/>
      <point x="500" y="136"/>
      <point x="500" y="45"/>
      <point x="545" y="45"/>
      <point x="545" y="0"/>
      <point x="682" y="0"/>
      <point x="682" y="45"/>
      <point x="636" y="45"/>
      <point x="636" y="91"/>
      <point x="591" y="91"/>
      <point x="591" y="136"/>
      <point x="545" y="136"/>
      <point x="545" y="227"/>
      <point x="500" y="227"/>
      <point x="500" y="273"/>
      <point x="455" y="273"/>
      <point x="455" y="318"/>
      <point x="409" y="318"/>
      <point x="409" y="409"/>
      <point x="455" y="409"/>
      <point x="455" y="455"/>
      <point x="500" y="455"/>
      <point x="500" y="500"/>
      <point x="545" y="500"/>
      <point x="545" y="591"/>
      <point x="591" y="591"/>
      <point x="591" y="636"/>
      <point x="636" y="636"/>
      <point x="636" y="682"/>
      <point x="682" y="682"/>
      <point x="682" y="727"/>
      <point x="545" y="727"/>
      <point x="545" y="682"/>
      <point x="500" y="682"/>
      <point x="500" y="591"/>
      <point x="455" y="591"/>
      <point x="455" y="545"/>
      <point x="409" y="545"/>
      <point x="409" y="455"/>
      <point x="318" y="455"/>
      <point x="318" y="545"/>
      <point x="273" y="545"/>
      <point x="273" y="591"/>
      <point x="227" y="591"/>
      <point x="227" y="682"/>
      <point x="182" y="682"/>
      <point x="182" y="727"/>
      <point x="45" y="727"/>
      <point x="45" y="682"/>
      <point x="91" y="682"/>
      <point x="91" y="636"/>
      <point x="136" y="636"/>
      <point x="136" y="591"/>
      <point x="182" y="591"/>
      <point x="182" y="500"/>
      <point x="227" y="500"/>
      <point x="227" y="455"/>
      <point x="273" y="455"/>
      <point x="273" y="409"/>
      <point x="318" y="409"/>
      <point x="318" y="318"/>
      <point x="273" y="318"/>
      <point x="273" y="273"/>
      <point x="227" y="273"/>
      <point x="227" y="227"/>
      <point x="182" y="227"/>
      <point x="182" y="136"/>
      <point x="136" y="136"/>
      <point x="136" y="91"/>
      <point x="91" y="91"/>
      <point x="91" y="45"/>
      <point x="45" y="45"/>
    </contour>
  </outline>
</glyph>
<glyph name="bracketleft" format="2">
  <advance width="273"/>
  <unicode hex="005B"/>
  <outline>
    <contour>
      <point x="45" y="-182"/>
      <point x="273" y="-182"/>
      <point x="273" y="-91"/>
      <point x="136" y="-91"/>
      <point x="136" y="636"/>
      <point x="273" y="636"/>
      <point x="273" y="727"/>
      <point x="45" y="727"/>
    </contour>
  </outline>
</glyph>
<glyph name="bracketright" format="2">
  <advance width="273"/>
  <unicode hex="005D"/>
  <outline>
    <contour>
      <point x="0" y="-182"/>
      <point x="227" y="-182"/>
      <point x="227" y="727"/>
      <point x="0" y="727"/>
      <point x="0" y="636"/>
      <point x="136" y="636"/>
      <point x="136" y="-91"/>
      <point x="0" y="-91"/>
    </contour>
  </outline>
</glyph>
<glyph name="grave" format="2">
  <advance width="273"/>
  <unicode hex="0060"/>
  <outline>
    <contour>
      <point x="0" y="636"/>
      <point x="45" y="636"/>
      <point x="45" y="591"/>
      <point x="91" y="591"/>
      <point x="91" y="545"/>
      <point x="227" y="545"/>
      <point x="227" y="591"/>
      <point x="182" y="591"/>
      <point x="182" y="636"/>
      <point x="136" y="636"/>
      <point x="136" y="682"/>
      <point x="0" y="682"/>
    </contour>
  </outline>
</glyph>
<glyph name="c" format="2">
  <advance width="545"/>
  <unicode hex="0063"/>
  <outline>
    <contour>
      <point x="45" y="136"/>
      <point x="91" y="136"/>
      <point x="91" y="45"/>
      <point x="182" y="45"/>
      <point x="182" y="0"/>
      <point x="409" y="0"/>
      <point x="409" y="45"/>
      <point x="455" y="45"/>
      <point x="455" y="91"/>
      <point x="500" y="91"/>
      <point x="500" y="182"/>
      <point x="409" y="182"/>
      <point x="409" y="136"/>
      <point x="364" y="136"/>
      <point x="364" y="91"/>
      <point x="182" y="91"/>
      <point x="182" y="182"/>
      <point x="136" y="182"/>
      <point x="136" y="318"/>
      <point x="182" y="318"/>
      <point x="182" y="409"/>
      <point x="364" y="409"/>
      <point x="364" y="364"/>
      <point x="409" y="364"/>
      <point x="409" y="318"/>
      <point x="500" y="318"/>
      <point x="500" y="409"/>
      <point x="455" y="409"/>
      <point x="455" y="455"/>
      <point x="409" y="455"/>
      <point x="409" y="500"/>
      <point x="182" y="500"/>
      <point x="182" y="455"/>
      <point x="91" y="455"/>
      <point x="91" y="364"/>
      <point x="45" y="364"/>
    </contour>
  </outline>
</glyph>
<glyph name="f" format="2">
  <advance width="455"/>
  <unicode hex="0066"/>
  <outline>
    <contour>
      <point x="0" y="409"/>
      <point x="136" y="409"/>
      <point x="136" y="0"/>
      <point x="227" y="0"/>
      <point x="227" y="409"/>
      <point x="409" y="409"/>
      <point x="409" y="500"/>
      <point x="227" y="500"/>
      <point x="227" y="591"/>
      <point x="273" y="591"/>
      <point x="273" y="636"/>
      <point x="409" y="636"/>
      <point x="409" y="727"/>
      <point x="273" y="727"/>
      <point x="273" y="682"/>
      <point x="182" y="682"/>
      <point x="182" y="636"/>
      <point x="136" y="636"/>
      <point x="136" y="500"/>
      <point x="0" y="500"/>
    </contour>
  </outline>
</glyph>
<glyph name="h" format="2">
  <advance width="545"/>
  <unicode hex="0068"/>
  <outline>
    <contour>
      <point x="45" y="0"/>
      <point x="136" y="0"/>
      <point x="136" y="364"/>
      <point x="182" y="364"/>
      <point x="182" y="409"/>
      <point x="364" y="409"/>
      <point x="364" y="364"/>
      <point x="409" y="364"/>
      <point x="409" y="0"/>
      <point x="500" y="0"/>
      <point x="500" y="364"/>
      <point x="455" y="364"/>
      <point x="455" y="455"/>
      <point x="409" y="455"/>
      <point x="409" y="500"/>
      <point x="182" y="500"/>
      <point x="182" y="455"/>
      <point x="136" y="455"/>
      <point x="136" y="727"/>
      <point x="45" y="727"/>
    </contour>
  </outline>
</glyph>
<glyph name="i" format="2">
  <advance width="182"/>
  <unicode hex="0069"/>
  <outline>
    <contour>
      <point x="45" y="591"/>
      <point x="136" y="591"/>
      <point x="136" y="727"/>
      <point x="45" y="727"/>
    </contour>
    <contour>
      <point x="45" y="0"/>
      <point x="136" y="0"/>
      <point x="136" y="500"/>
      <point x="45" y="500"/>
    </contour>
  </outline>
</glyph>
<glyph name="j" format="2">
  <advance width="182"/>
  <unicode hex="006A"/>
  <outline>
    <contour>
      <point x="45" y="591"/>
      <point x="136" y="591"/>
      <point x="136" y="727"/>
      <point x="45" y="727"/>
    </contour>
    <contour>
      <point x="-45" y="-182"/>
      <point x="91" y="-182"/>
      <point x="91" y="-136"/>
      <point x="136" y="-136"/>
      <point x="136" y="500"/>
      <point x="45" y="500"/>
      <point x="45" y="-91"/>
      <point x="-45" y="-91"/>
    </contour>
  </outline>
</glyph>
<glyph name="k" format="2">
  <advance width="545"/>
  <unicode hex="006B"/>
  <outline>
    <contour>
      <point x="45" y="0"/>
      <point x="136" y="0"/>
      <point x="136" y="136"/>
      <point x="227" y="136"/>
      <point x="227" y="91"/>
      <point x="273" y="91"/>
      <point x="273" y="45"/>
      <point x="318" y="45"/>
      <point x="318" y="0"/>
      <point x="500" y="0"/>
      <point x="500" y="45"/>
      <point x="455" y="45"/>
      <point x="455" y="91"/>
      <point x="409" y="91"/>
      <point x="409" y="136"/>
      <point x="364" y="136"/>
      <point x="364" y="182"/>
      <point x="318" y="182"/>
      <point x="318" y="227"/>
      <point x="273" y="227"/>
      <point x="273" y="273"/>
      <point x="318" y="273"/>
      <point x="318" y="318"/>
      <point x="364" y="318"/>
      <point x="364" y="364"/>
      <point x="409" y="364"/>
      <point x="409" y="409"/>
      <point x="455" y="409"/>
      <point x="455" y="455"/>
      <point x="500" y="455"/>
      <point x="500" y="500"/>
      <point x="364" y="500"/>
      <point x="364" y="455"/>
      <point x="318" y="455"/>
      <point x="318" y="409"/>
      <point x="273" y="409"/>
      <point x="273" y="364"/>
      <point x="227" y="364"/>
      <point x="227" y="318"/>
      <point x="182" y="318"/>
      <point x="182" y="273"/>
      <point x="136" y="273"/>
      <point x="136" y="727"/>
      <point x="45" y="727"/>
    </contour>
  </outline>
</glyph>
<glyph name="l" format="2">
  <advance width="182"/>
  <unicode hex="006C"/>
  <outline>
    <contour>
      <point x="45" y="0"/>
      <point x="136" y="0"/>
      <point x="136" y="727"/>
      <point x="45" y="727"/>
    </contour>
  </outline>
</glyph>
<glyph name="m" format="2">
  <advance width="909"/>
  <unicode hex="006D"/>
  <outline>
    <contour>
      <point x="45" y="0"/>
      <point x="136" y="0"/>
      <point x="136" y="364"/>
      <point x="182" y="364"/>
      <point x="182" y="409"/>
      <point x="364" y="409"/>
      <point x="364" y="364"/>
      <point x="409" y="364"/>
      <point x="409" y="0"/>
      <point x="500" y="0"/>
      <point x="500" y="364"/>
      <point x="545" y="364"/>
      <point x="545" y="409"/>
      <point x="727" y="409"/>
      <point x="727" y="364"/>
      <point x="773" y="364"/>
      <point x="773" y="0"/>
      <point x="864" y="0"/>
      <point x="864" y="409"/>
      <point x="818" y="409"/>
      <point x="818" y="455"/>
      <point x="773" y="455"/>
      <point x="773" y="500"/>
      <point x="545" y="500"/>
      <point x="545" y="455"/>
      <point x="500" y="455"/>
      <point x="500" y="409"/>
      <point x="455" y="409"/>
      <point x="455" y="455"/>
      <point x="409" y="455"/>
      <point x="409" y="500"/>
      <point x="182" y="500"/>
      <point x="182" y="455"/>
      <point x="136" y="455"/>
      <point x="136" y="500"/>
      <point x="45" y="500"/>
    </contour>
  </outline>
</glyph>
<glyph name="n" format="2">
  <advance width="545"/>
  <unicode hex="006E"/>
  <outline>
    <contour>
      <point x="45" y="0"/>
      <point x="136" y="0"/>
      <point x="136" y="364"/>
      <point x="182" y="364"/>
      <point x="182" y="409"/>
      <point x="364" y="409"/>
      <point x="364" y="318"/>
      <point x="409" y="318"/>
      <point x="409" y="0"/>
      <point x="500" y="0"/>
      <point x="500" y="364"/>
      <point x="455" y="364"/>
      <point x="455" y="455"/>
      <point x="364" y="455"/>
      <point x="364" y="500"/>
      <point x="182" y="500"/>
      <point x="182" y="455"/>
      <point x="136" y="455"/>
      <point x="136" y="500"/>
      <point x="45" y="500"/>
    </contour>
  </outline>
</glyph>
<glyph name="r" format="2">
  <advance width="318"/>
  <unicode hex="0072"/>
  <outline>
    <contour>
      <point x="45" y="0"/>
      <point x="136" y="0"/>
      <point x="136" y="364"/>
      <point x="182" y="364"/>
      <point x="182" y="409"/>
      <point x="318" y="409"/>
      <point x="318" y="500"/>
      <point x="182" y="500"/>
      <point x="182" y="455"/>
      <point x="136" y="455"/>
      <point x="136" y="500"/>
      <point x="45" y="500"/>
    </contour>
  </outline>
</glyph>
<glyph name="t" format="2">
  <advance width="455"/>
  <unicode hex="0074"/>
  <outline>
    <contour>
      <point x="0" y="409"/>
      <point x="136" y="409"/>
      <point x="136" y="45"/>
      <point x="182" y="45"/>
      <point x="182" y="0"/>
      <point x="409" y="0"/>
      <point x="409" y="91"/>
      <point x="227" y="91"/>
      <point x="227" y="409"/>
      <point x="409" y="409"/>
      <point x="409" y="500"/>
      <point x="227" y="500"/>
      <point x="227" y="636"/>
      <point x="136" y="636"/>
      <point x="136" y="500"/>
      <point x="0" y="500"/>
    </contour>
  </outline>
</glyph>
<glyph name="u" format="2">
  <advance width="545"/>
  <unicode hex="0075"/>
  <outline>
    <contour>
      <point x="45" y="136"/>
      <point x="91" y="136"/>
      <point x="91" y="45"/>
      <point x="136" y="45"/>
      <point x="136" y="0"/>
      <point x="364" y="0"/>
      <point x="364" y="45"/>
      <point x="409" y="45"/>
      <point x="409" y="0"/>
      <point x="500" y="0"/>
      <point x="500" y="500"/>
      <point x="409" y="500"/>
      <point x="409" y="136"/>
      <point x="364" y="136"/>
      <point x="364" y="91"/>
      <point x="182" y="91"/>
      <point x="182" y="136"/>
      <point x="136" y="136"/>
      <point x="136" y="500"/>
      <point x="45" y="500"/>
    </contour>
  </outline>
</glyph>
<glyph name="v" format="2">
  <advance width="591"/>
  <unicode hex="0076"/>
  <outline>
    <contour>
      <point x="45" y="455"/>
      <point x="91" y="455"/>
      <point x="91" y="318"/>
      <point x="136" y="318"/>
      <point x="136" y="227"/>
      <point x="182" y="227"/>
      <point x="182" y="136"/>
      <point x="227" y="136"/>
      <point x="227" y="0"/>
      <point x="364" y="0"/>
      <point x="364" y="136"/>
      <point x="409" y="136"/>
      <point x="409" y="227"/>
      <point x="455" y="227"/>
      <point x="455" y="318"/>
      <point x="500" y="318"/>
      <point x="500" y="455"/>
      <point x="545" y="455"/>
      <point x="545" y="500"/>
      <point x="409" y="500"/>
      <point x="409" y="364"/>
      <point x="364" y="364"/>
      <point x="364" y="273"/>
      <point x="318" y="273"/>
      <point x="318" y="136"/>
      <point x="273" y="136"/>
      <point x="273" y="273"/>
      <point x="227" y="273"/>
      <point x="227" y="364"/>
      <point x="182" y="364"/>
      <point x="182" y="500"/>
      <point x="45" y="500"/>
    </contour>
  </outline>
</glyph>
<glyph name="x" format="2">
  <advance width="545"/>
  <unicode hex="0078"/>
  <outline>
    <contour>
      <point x="45" y="0"/>
      <point x="182" y="0"/>
      <point x="182" y="45"/>
      <point x="227" y="45"/>
      <point x="227" y="136"/>
      <point x="318" y="136"/>
      <point x="318" y="45"/>
      <point x="364" y="45"/>
      <point x="364" y="0"/>
      <point x="500" y="0"/>
      <point x="500" y="45"/>
      <point x="455" y="45"/>
      <point x="455" y="91"/>
      <point x="409" y="91"/>
      <point x="409" y="136"/>
      <point x="364" y="136"/>
      <point x="364" y="227"/>
      <point x="318" y="227"/>
      <point x="318" y="273"/>
      <point x="364" y="273"/>
      <point x="364" y="364"/>
      <point x="409" y="364"/>
      <point x="409" y="409"/>
      <point x="455" y="409"/>
      <point x="455" y="455"/>
      <point x="500" y="455"/>
      <point x="500" y="500"/>
      <point x="364" y="500"/>
      <point x="364" y="455"/>
      <point x="318" y="455"/>
      <point x="318" y="364"/>
      <point x="227" y="364"/>
      <point x="227" y="455"/>
      <point x="182" y="455"/>
      <point x="182" y="500"/>
      <point x="45" y="500"/>
      <point x="45" y="455"/>
      <point x="91" y="455"/>
      <point x="91" y="409"/>
      <point x="136" y="409"/>
      <point x="136" y="364"/>
      <point x="182" y="364"/>
      <point x="182" y="273"/>
      <point x="227" y="273"/>
      <point x="227" y="227"/>
      <point x="182" y="227"/>
      <point x="182" y="136"/>
      <point x="136" y="136"/>
      <point x="136" y="91"/>
      <point x="91" y="91"/>
      <point x="91" y="45"/>
      <point x="45" y="45"/>
    </contour>
  </outline>
</glyph>
<glyph name="braceleft" format="2">
  <advance width="409"/>
  <unicode hex="007B"/>
  <outline>
    <contour>
      <point x="0" y="227"/>
      <point x="136" y="227"/>
      <point x="136" y="-91"/>
      <point x="182" y="-91"/>
      <point x="182" y="-136"/>
      <point x="227" y="-136"/>
      <point x="227" y="-182"/>
      <point x="364" y="-182"/>
      <point x="364" y="-91"/>
      <point x="273" y="-91"/>
      <point x="273" y="-45"/>
      <point x="227" y="-45"/>
      <point x="227" y="227"/>
      <point x="182" y="227"/>
      <point x="182" y="318"/>
      <point x="227" y="318"/>
      <point x="227" y="591"/>
      <point x="273" y="591"/>
      <point x="273" y="636"/>
      <point x="364" y="636"/>
      <point x="364" y="727"/>
      <point x="227" y="727"/>
      <point x="227" y="682"/>
      <point x="182" y="682"/>
      <point x="182" y="636"/>
      <point x="136" y="636"/>
      <point x="136" y="318"/>
      <point x="0" y="318"/>
    </contour>
  </outline>
</glyph>
<glyph name="braceright" format="2">
  <advance width="409"/>
  <unicode hex="007D"/>
  <outline>
    <contour>
      <point x="-45" y="-182"/>
      <point x="91" y="-182"/>
      <point x="91" y="-136"/>
      <point x="136" y="-136"/>
      <point x="136" y="-91"/>
      <point x="182" y="-91"/>
      <point x="182" y="182"/>
      <point x="227" y="182"/>
      <point x="227" y="227"/>
      <point x="318" y="227"/>
      <point x="318" y="318"/>
      <point x="227" y="318"/>
      <point x="227" y="364"/>
      <point x="182" y="364"/>
      <point x="182" y="636"/>
      <point x="136" y="636"/>
      <point x="136" y="682"/>
      <point x="91" y="682"/>
      <point x="91" y="727"/>
      <point x="-45" y="727"/>
      <point x="-45" y="636"/>
      <point x="45" y="636"/>
      <point x="45" y="591"/>
      <point x="91" y="591"/>
      <point x="91" y="318"/>
      <point x="136" y="318"/>
      <point x="136" y="227"/>
      <point x="91" y="227"/>
      <point x="91" y="-45"/>
      <point x="45" y="-45"/>
      <point x="45" y="-91"/>
      <point x="-45" y="-91"/>
    </contour>
  </outline>
</glyph>
<glyph name="dieresis" format="2">
  <advance width="409"/>
  <unicode hex="00A8"/>
  <outline>
    <contour>
      <point x="45" y="591"/>
      <point x="136" y="591"/>
      <point x="136" y="727"/>
      <point x="45" y="727"/>
    </contour>
    <contour>
      <point x="273" y="591"/>
      <point x="364" y="591"/>
      <point x="364" y="727"/>
      <point x="273" y="727"/>
    </contour>
  </outline>
</glyph>
<glyph name="macron" format="2">
  <advance width="455"/>
  <unicode hex="00AF"/>
  <outline>
    <contour>
      <point x="45" y="591"/>
      <point x="409" y="591"/>
      <point x="409" y="682"/>
      <point x="45" y="682"/>
    </contour>
  </outline>
</glyph>
<glyph name="acute" format="2">
  <advance width="500"/>
  <unicode hex="00B4"/>
  <outline>
    <contour>
      <point x="227" y="545"/>
      <point x="364" y="545"/>
      <point x="364" y="591"/>
      <point x="409" y="591"/>
      <point x="409" y="636"/>
      <point x="455" y="636"/>
      <point x="455" y="682"/>
      <point x="318" y="682"/>
      <point x="318" y="636"/>
      <point x="273" y="636"/>
      <point x="273" y="591"/>
      <point x="227" y="591"/>
    </contour>
  </outline>
</glyph>
<glyph name="cedilla" format="2">
  <advance width="455"/>
  <unicode hex="00B8"/>
  <outline>
    <contour>
      <point x="182" y="-136"/>
      <point x="273" y="-136"/>
      <point x="273" y="-227"/>
      <point x="227" y="-227"/>
      <point x="227" y="-273"/>
      <point x="318" y="-273"/>
      <point x="318" y="-227"/>
      <point x="364" y="-227"/>
      <point x="364" y="-91"/>
      <point x="318" y="-91"/>
      <point x="318" y="-45"/>
      <point x="273" y="-45"/>
      <point x="273" y="0"/>
      <point x="182" y="0"/>
    </contour>
  </outline>
</glyph>
<glyph name="Acircumflex" format="2">
  <advance width="773"/>
  <unicode hex="00C2"/>
  <outline>
    <contour>
      <point x="182" y="773"/>
      <point x="273" y="773"/>
      <point x="273" y="818"/>
      <point x="364" y="818"/>
      <point x="364" y="864"/>
      <point x="409" y="864"/>
      <point x="409" y="818"/>
      <point x="500" y="818"/>
      <point x="500" y="773"/>
      <point x="591" y="773"/>
      <point x="591" y="818"/>
      <point x="545" y="818"/>
      <point x="545" y="864"/>
      <point x="500" y="864"/>
      <point x="500" y="909"/>
      <point x="455" y="909"/>
      <point x="455" y="955"/>
      <point x="318" y="955"/>
      <point x="318" y="909"/>
      <point x="273" y="909"/>
      <point x="273" y="864"/>
      <point x="227" y="864"/>
      <point x="227" y="818"/>
      <point x="182" y="818"/>
    </contour>
    <contour>
      <point x="45" y="0"/>
      <point x="182" y="0"/>
      <point x="182" y="136"/>
      <point x="227" y="136"/>
      <point x="227" y="182"/>
      <point x="545" y="182"/>
      <point x="545" y="136"/>
      <point x="591" y="136"/>
      <point x="591" y="0"/>
      <point x="727" y="0"/>
      <point x="727" y="45"/>
      <point x="682" y="45"/>
      <point x="682" y="182"/>
      <point x="636" y="182"/>
      <point x="636" y="273"/>
      <point x="591" y="273"/>
      <point x="591" y="364"/>
      <point x="545" y="364"/>
      <point x="545" y="500"/>
      <point x="500" y="500"/>
      <point x="500" y="591"/>
      <point x="455" y="591"/>
      <point x="455" y="727"/>
      <point x="318" y="727"/>
      <point x="318" y="591"/>
      <point x="273" y="591"/>
      <point x="273" y="500"/>
      <point x="227" y="500"/>
      <point x="227" y="409"/>
      <point x="182" y="409"/>
      <point x="182" y="273"/>
      <point x="136" y="273"/>
      <point x="136" y="182"/>
      <point x="91" y="182"/>
      <point x="91" y="45"/>
      <point x="45" y="45"/>
    </contour>
    <contour>
      <point x="273" y="364"/>
      <point x="318" y="364"/>
      <point x="318" y="500"/>
      <point x="364" y="500"/>
      <point x="364" y="591"/>
      <point x="409" y="591"/>
      <point x="409" y="500"/>
      <point x="455" y="500"/>
      <point x="455" y="364"/>
      <point x="500" y="364"/>
      <point x="500" y="273"/>
      <point x="273" y="273"/>
    </contour>
  </outline>
</glyph>
<glyph name="Eacute" format="2">
  <advance width="500"/>
  <unicode hex="00C9"/>
  <outline>
    <contour>
      <point x="227" y="773"/>
      <point x="364" y="773"/>
      <point x="364" y="818"/>
      <point x="409" y="818"/>
      <point x="409" y="864"/>
      <point x="455" y="864"/>
      <point x="455" y="909"/>
      <point x="318" y="909"/>
      <point x="318" y="864"/>
      <point x="273" y="864"/>
      <point x="273" y="818"/>
      <point x="227" y="818"/>
    </contour>
    <contour>
      <point x="45" y="0"/>
      <point x="455" y="0"/>
      <point x="455" y="91"/>
      <point x="136" y="91"/>
      <point x="136" y="318"/>
      <point x="455" y="318"/>
      <point x="455" y="409"/>
      <point x="136" y="409"/>
      <point x="136" y="636"/>
      <point x="455" y="636"/>
      <point x="455" y="727"/>
      <point x="45" y="727"/>
    </contour>
  </outline>
</glyph>
<glyph name="Ecircumflex" format="2">
  <advance width="500"/>
  <unicode hex="00CA"/>
  <outline>
    <contour>
      <point x="45" y="773"/>
      <point x="136" y="773"/>
      <point x="136" y="818"/>
      <point x="227" y="818"/>
      <point x="227" y="864"/>
      <point x="273" y="864"/>
      <point x="273" y="818"/>
      <point x="364" y="818"/>
      <point x="364" y="773"/>
      <point x="455" y="773"/>
      <point x="455" y="818"/>
      <point x="409" y="818"/>
      <point x="409" y="864"/>
      <point x="364" y="864"/>
      <point x="364" y="909"/>
      <point x="318" y="909"/>
      <point x="318" y="955"/>
      <point x="182" y="955"/>
      <point x="182" y="909"/>
      <point x="136" y="909"/>
      <point x="136" y="864"/>
      <point x="91" y="864"/>
      <point x="91" y="818"/>
      <point x="45" y="818"/>
    </contour>
    <contour>
      <point x="45" y="0"/>
      <point x="455" y="0"/>
      <point x="455" y="91"/>
      <point x="136" y="91"/>
      <point x="136" y="318"/>
      <point x="455" y="318"/>
      <point x="455" y="409"/>
      <point x="136" y="409"/>
      <point x="136" y="636"/>
      <point x="455" y="636"/>
      <point x="455" y="727"/>
      <point x="45" y="727"/>
    </contour>
  </outline>
</glyph>
<glyph name="Edieresis" format="2">
  <advance width="500"/>
  <unicode hex="00CB"/>
  <outline>
    <contour>
      <point x="91" y="773"/>
      <point x="182" y="773"/>
      <point x="182" y="909"/>
      <point x="91" y="909"/>
    </contour>
    <contour>
      <point x="318" y="773"/>
      <point x="409" y="773"/>
      <point x="409" y="909"/>
      <point x="318" y="909"/>
    </contour>
    <contour>
      <point x="45" y="0"/>
      <point x="455" y="0"/>
      <point x="455" y="91"/>
      <point x="136" y="91"/>
      <point x="136" y="318"/>
      <point x="455" y="318"/>
      <point x="455" y="409"/>
      <point x="136" y="409"/>
      <point x="136" y="636"/>
      <point x="455" y="636"/>
      <point x="455" y="727"/>
      <point x="45" y="727"/>
    </contour>
  </outline>
</glyph>
<glyph name="Igrave" format="2">
  <advance width="182"/>
  <unicode hex="00CC"/>
  <outline>
    <contour>
      <point x="-91" y="864"/>
      <point x="-45" y="864"/>
      <point x="-45" y="818"/>
      <point x="0" y="818"/>
      <point x="0" y="773"/>
      <point x="136" y="773"/>
      <point x="136" y="818"/>
      <point x="91" y="818"/>
      <point x="91" y="864"/>
      <point x="45" y="864"/>
      <point x="45" y="909"/>
      <point x="-91" y="909"/>
    </contour>
    <contour>
      <point x="45" y="0"/>
      <point x="136" y="0"/>
      <point x="136" y="727"/>
      <point x="45" y="727"/>
    </contour>
  </outline>
</glyph>
<glyph name="Iacute" format="2">
  <advance width="182"/>
  <unicode hex="00CD"/>
  <outline>
    <contour>
      <point x="45" y="773"/>
      <point x="182" y="773"/>
      <point x="182" y="818"/>
      <point x="227" y="818"/>
      <point x="227" y="864"/>
      <point x="273" y="864"/>
      <point x="273" y="909"/>
      <point x="136" y="909"/>
      <point x="136" y="864"/>
      <point x="91" y="864"/>
      <point x="91" y="818"/>
      <point x="45" y="818"/>
    </contour>
    <contour>
      <point x="45" y="0"/>
      <point x="136" y="0"/>
      <point x="136" y="727"/>
      <point x="45" y="727"/>
    </contour>
  </outline>
</glyph>
<glyph name="Icircumflex" format="2">
  <advance width="182"/>
  <unicode hex="00CE"/>
  <outline>
    <contour>
      <point x="-91" y="773"/>
      <point x="0" y="773"/>
      <point x="0" y="818"/>
      <point x="91" y="818"/>
      <point x="91" y="864"/>
      <point x="136" y="864"/>
      <point x="136" y="818"/>
      <point x="227" y="818"/>
      <point x="227" y="773"/>
      <point x="318" y="773"/>
      <point x="318" y="818"/>
      <point x="273" y="818"/>
      <point x="273" y="864"/>
      <point x="227" y="864"/>
      <point x="227" y="909"/>
      <point x="182" y="909"/>
      <point x="182" y="955"/>
      <point x="45" y="955"/>
      <point x="45" y="909"/>
      <point x="0" y="909"/>
      <point x="0" y="864"/>
      <point x="-45" y="864"/>
      <point x="-45" y="818"/>
      <point x="-91" y="818"/>
    </contour>
    <contour>
      <point x="45" y="0"/>
      <point x="136" y="0"/>
      <point x="136" y="727"/>
      <point x="45" y="727"/>
    </contour>
  </outline>
</glyph>
<glyph name="Idieresis" format="2">
  <advance width="182"/>
  <unicode hex="00CF"/>
  <outline>
    <contour>
      <point x="-45" y="773"/>
      <point x="45" y="773"/>
      <point x="45" y="909"/>
      <point x="-45" y="909"/>
    </contour>
    <contour>
      <point x="182" y="773"/>
      <point x="273" y="773"/>
      <point x="273" y="909"/>
      <point x="182" y="909"/>
    </contour>
    <contour>
      <point x="45" y="0"/>
      <point x="136" y="0"/>
      <point x="136" y="727"/>
      <point x="45" y="727"/>
    </contour>
  </outline>
</glyph>
<glyph name="Ntilde" format="2">
  <advance width="636"/>
  <unicode hex="00D1"/>
  <outline>
    <contour>
      <point x="136" y="773"/>
      <point x="227" y="773"/>
      <point x="227" y="864"/>
      <point x="318" y="864"/>
      <point x="318" y="818"/>
      <point x="364" y="818"/>
      <point x="364" y="773"/>
      <point x="500" y="773"/>
      <point x="500" y="818"/>
      <point x="545" y="818"/>
      <point x="545" y="955"/>
      <point x="455" y="955"/>
      <point x="455" y="864"/>
      <point x="364" y="864"/>
      <point x="364" y="909"/>
      <point x="318" y="909"/>
      <point x="318" y="955"/>
      <point x="182" y="955"/>
      <point x="182" y="909"/>
      <point x="136" y="909"/>
    </contour>
    <contour>
      <point x="45" y="0"/>
      <point x="136" y="0"/>
      <point x="136" y="545"/>
      <point x="182" y="545"/>
      <point x="182" y="455"/>
      <point x="227" y="455"/>
      <point x="227" y="364"/>
      <point x="273" y="364"/>
      <point x="273" y="318"/>
      <point x="318" y="318"/>
      <point x="318" y="227"/>
      <point x="364" y="227"/>
      <point x="364" y="136"/>
      <point x="409" y="136"/>
      <point x="409" y="91"/>
      <point x="455" y="91"/>
      <point x="455" y="0"/>
      <point x="591" y="0"/>
      <point x="591" y="727"/>
      <point x="500" y="727"/>
      <point x="500" y="182"/>
      <point x="455" y="182"/>
      <point x="455" y="273"/>
      <point x="409" y="273"/>
      <point x="409" y="364"/>
      <point x="364" y="364"/>
      <point x="364" y="409"/>
      <point x="318" y="409"/>
      <point x="318" y="500"/>
      <point x="273" y="500"/>
      <point x="273" y="591"/>
      <point x="227" y="591"/>
      <point x="227" y="636"/>
      <point x="182" y="636"/>
      <point x="182" y="727"/>
      <point x="45" y="727"/>
    </contour>
  </outline>
</glyph>
<glyph name="Odieresis" format="2">
  <advance width="727"/>
  <unicode hex="00D6"/>
  <outline>
    <contour>
      <point x="227" y="773"/>
      <point x="318" y="773"/>
      <point x="318" y="909"/>
      <point x="227" y="909"/>
    </contour>
    <contour>
      <point x="455" y="773"/>
      <point x="545" y="773"/>
      <point x="545" y="909"/>
      <point x="455" y="909"/>
    </contour>
    <contour>
      <point x="45" y="227"/>
      <point x="91" y="227"/>
      <point x="91" y="136"/>
      <point x="136" y="136"/>
      <point x="136" y="91"/>
      <point x="182" y="91"/>
      <point x="182" y="45"/>
      <point x="227" y="45"/>
      <point x="227" y="0"/>
      <point x="500" y="0"/>
      <point x="500" y="45"/>
      <point x="545" y="45"/>
      <point x="545" y="91"/>
      <point x="591" y="91"/>
      <point x="591" y="136"/>
      <point x="636" y="136"/>
      <point x="636" y="227"/>
      <point x="682" y="227"/>
      <point x="682" y="500"/>
      <point x="636" y="500"/>
      <point x="636" y="591"/>
      <point x="591" y="591"/>
      <point x="591" y="636"/>
      <point x="545" y="636"/>
      <point x="545" y="682"/>
      <point x="500" y="682"/>
      <point x="500" y="727"/>
      <point x="227" y="727"/>
      <point x="227" y="682"/>
      <point x="182" y="682"/>
      <point x="182" y="636"/>
      <point x="136" y="636"/>
      <point x="136" y="591"/>
      <point x="91" y="591"/>
      <point x="91" y="500"/>
      <point x="45" y="500"/>
    </contour>
    <contour>
      <point x="136" y="455"/>
      <point x="182" y="455"/>
      <point x="182" y="545"/>
      <point x="227" y="545"/>
      <point x="227" y="591"/>
      <point x="273" y="591"/>
      <point x="273" y="636"/>
      <point x="455" y="636"/>
      <point x="455" y="591"/>
      <point x="500" y="591"/>
      <point x="500" y="545"/>
      <point x="545" y="545"/>
      <point x="545" y="455"/>
      <point x="591" y="455"/>
      <point x="591" y="273"/>
      <point x="545" y="273"/>
      <point x="545" y="182"/>
      <point x="500" y="182"/>
      <point x="500" y="136"/>
      <point x="455" y="136"/>
      <point x="455" y="91"/>
      <point x="273" y="91"/>
      <point x="273" y="136"/>
      <point x="227" y="136"/>
      <point x="227" y="182"/>
      <point x="182" y="182"/>
      <point x="182" y="273"/>
      <point x="136" y="273"/>
    </contour>
  </outline>
</glyph>
<glyph name="Ugrave" format="2">
  <advance width="636"/>
  <unicode hex="00D9"/>
  <outline>
    <contour>
      <point x="136" y="864"/>
      <point x="182" y="864"/>
      <point x="182" y="818"/>
      <point x="227" y="818"/>
      <point x="227" y="773"/>
      <point x="364" y="773"/>
      <point x="364" y="818"/>
      <point x="318" y="818"/>
      <point x="318" y="864"/>
      <point x="273" y="864"/>
      <point x="273" y="909"/>
      <point x="136" y="909"/>
    </contour>
    <contour>
      <point x="45" y="182"/>
      <point x="91" y="182"/>
      <point x="91" y="91"/>
      <point x="136" y="91"/>
      <point x="136" y="45"/>
      <point x="182" y="45"/>
      <point x="182" y="0"/>
      <point x="455" y="0"/>
      <point x="455" y="45"/>
      <point x="500" y="45"/>
      <point x="500" y="91"/>
      <point x="545" y="91"/>
      <point x="545" y="182"/>
      <point x="591" y="182"/>
      <point x="591" y="727"/>
      <point x="500" y="727"/>
      <point x="500" y="182"/>
      <point x="455" y="182"/>
      <point x="455" y="136"/>
      <point x="409" y="136"/>
      <point x="409" y="91"/>
      <point x="227" y="91"/>
      <point x="227" y="136"/>
      <point x="182" y="136"/>
      <point x="182" y="182"/>
      <point x="136" y="182"/>
      <point x="136" y="727"/>
      <point x="45" y="727"/>
    </contour>
  </outline>
</glyph>
<glyph name="Udieresis" format="2">
  <advance width="636"/>
  <unicode hex="00DC"/>
  <outline>
    <contour>
      <point x="182" y="773"/>
      <point x="273" y="773"/>
      <point x="273" y="909"/>
      <point x="182" y="909"/>
    </contour>
    <contour>
      <point x="409" y="773"/>
      <point x="500" y="773"/>
      <point x="500" y="909"/>
      <point x="409" y="909"/>
    </contour>
    <contour>
      <point x="45" y="182"/>
      <point x="91" y="182"/>
      <point x="91" y="91"/>
      <point x="136" y="91"/>
      <point x="136" y="45"/>
      <point x="182" y="45"/>
      <point x="182" y="0"/>
      <point x="455" y="0"/>
      <point x="455" y="45"/>
      <point x="500" y="45"/>
      <point x="500" y="91"/>
      <point x="545" y="91"/>
      <point x="545" y="182"/>
      <point x="591" y="182"/>
      <point x="591" y="727"/>
      <point x="500" y="727"/>
      <point x="500" y="182"/>
      <point x="455" y="182"/>
      <point x="455" y="136"/>
      <point x="409" y="136"/>
      <point x="409" y="91"/>
      <point x="227" y="91"/>
      <point x="227" y="136"/>
      <point x="182" y="136"/>
      <point x="182" y="182"/>
      <point x="136" y="182"/>
      <point x="136" y="727"/>
      <point x="45" y="727"/>
    </contour>
  </outline>
</glyph>
<glyph name="Yacute" format="2">
  <advance width="545"/>
  <unicode hex="00DD"/>
  <outline>
    <contour>
      <point x="227" y="773"/>
      <point x="364" y="773"/>
      <point x="364" y="818"/>
      <point x="409" y="818"/>
      <point x="409" y="864"/>
      <point x="455" y="864"/>
      <point x="455" y="909"/>
      <point x="318" y="909"/>
      <point x="318" y="864"/>
      <point x="273" y="864"/>
      <point x="273" y="818"/>
      <point x="227" y="818"/>
    </contour>
    <contour>
      <point x="0" y="682"/>
      <point x="45" y="682"/>
      <point x="45" y="591"/>
      <point x="91" y="591"/>
      <point x="91" y="500"/>
      <point x="136" y="500"/>
      <point x="136" y="409"/>
      <point x="182" y="409"/>
      <point x="182" y="318"/>
      <point x="227" y="318"/>
      <point x="227" y="0"/>
      <point x="318" y="0"/>
      <point x="318" y="318"/>
      <point x="364" y="318"/>
      <point x="364" y="409"/>
      <point x="409" y="409"/>
      <point x="409" y="500"/>
      <point x="455" y="500"/>
      <point x="455" y="591"/>
      <point x="500" y="591"/>
      <point x="500" y="682"/>
      <point x="545" y="682"/>
      <point x="545" y="727"/>
      <point x="409" y="727"/>
      <point x="409" y="636"/>
      <point x="364" y="636"/>
      <point x="364" y="545"/>
      <point x="318" y="545"/>
      <point x="318" y="409"/>
      <point x="227" y="409"/>
      <point x="227" y="545"/>
      <point x="182" y="545"/>
      <point x="182" y="636"/>
      <point x="136" y="636"/>
      <point x="136" y="727"/>
      <point x="0" y="727"/>
    </contour>
  </outline>
</glyph>
<glyph name="agrave" format="2">
  <advance width="500"/>
  <unicode hex="00E0"/>
  <outline>
    <contour>
      <point x="91" y="636"/>
      <point x="136" y="636"/>
      <point x="136" y="591"/>
      <point x="182" y="591"/>
      <point x="182" y="545"/>
      <point x="318" y="545"/>
      <point x="318" y="591"/>
      <point x="273" y="591"/>
      <point x="273" y="636"/>
      <point x="227" y="636"/>
      <point x="227" y="682"/>
      <point x="91" y="682"/>
    </contour>
    <contour>
      <point x="45" y="45"/>
      <point x="91" y="45"/>
      <point x="91" y="0"/>
      <point x="318" y="0"/>
      <point x="318" y="45"/>
      <point x="364" y="45"/>
      <point x="364" y="0"/>
      <point x="455" y="0"/>
      <point x="455" y="409"/>
      <point x="409" y="409"/>
      <point x="409" y="455"/>
      <point x="364" y="455"/>
      <point x="364" y="500"/>
      <point x="136" y="500"/>
      <point x="136" y="455"/>
      <point x="91" y="455"/>
      <point x="91" y="409"/>
      <point x="45" y="409"/>
      <point x="45" y="318"/>
      <point x="136" y="318"/>
      <point x="136" y="364"/>
      <point x="182" y="364"/>
      <point x="182" y="409"/>
      <point x="318" y="409"/>
      <point x="318" y="364"/>
      <point x="364" y="364"/>
      <point x="364" y="273"/>
      <point x="136" y="273"/>
      <point x="136" y="227"/>
      <point x="91" y="227"/>
      <point x="91" y="182"/>
      <point x="45" y="182"/>
    </contour>
    <contour>
      <point x="136" y="182"/>
      <point x="364" y="182"/>
      <point x="364" y="136"/>
      <point x="318" y="136"/>
      <point x="318" y="91"/>
      <point x="136" y="91"/>
    </contour>
  </outline>
</glyph>
<glyph name="aring" format="2">
  <advance width="500"/>
  <unicode hex="00E5"/>
  <outline>
    <contour>
      <point x="91" y="591"/>
      <point x="136" y="591"/>
      <point x="136" y="545"/>
      <point x="364" y="545"/>
      <point x="364" y="591"/>
      <point x="409" y="591"/>
      <point x="409" y="773"/>
      <point x="364" y="773"/>
      <point x="364" y="818"/>
      <point x="136" y="818"/>
      <point x="136" y="773"/>
      <point x="91" y="773"/>
    </contour>
    <contour>
      <point x="45" y="45"/>
      <point x="91" y="45"/>
      <point x="91" y="0"/>
      <point x="318" y="0"/>
      <point x="318" y="45"/>
      <point x="364" y="45"/>
      <point x="364" y="0"/>
      <point x="455" y="0"/>
      <point x="455" y="409"/>
      <point x="409" y="409"/>
      <point x="409" y="455"/>
      <point x="364" y="455"/>
      <point x="364" y="500"/>
      <point x="136" y="500"/>
      <point x="136" y="455"/>
      <point x="91" y="455"/>
      <point x="91" y="409"/>
      <point x="45" y="409"/>
      <point x="45" y="318"/>
      <point x="136" y="318"/>
      <point x="136" y="364"/>
      <point x="182" y="364"/>
      <point x="182" y="409"/>
      <point x="318" y="409"/>
      <point x="318" y="364"/>
      <point x="364" y="364"/>
      <point x="364" y="273"/>
      <point x="136" y="273"/>
      <point x="136" y="227"/>
      <point x="91" y="227"/>
      <point x="91" y="182"/>
      <point x="45" y="182"/>
    </contour>
    <contour>
      <point x="182" y="727"/>
      <point x="318" y="727"/>
      <point x="318" y="636"/>
      <point x="182" y="636"/>
    </contour>
    <contour>
      <point x="136" y="182"/>
      <point x="364" y="182"/>
      <point x="364" y="136"/>
      <point x="318" y="136"/>
      <point x="318" y="91"/>
      <point x="136" y="91"/>
    </contour>
  </outline>
</glyph>
<glyph name="iacute" format="2">
  <advance width="182"/>
  <unicode hex="00ED"/>
  <outline>
    <contour>
      <point x="45" y="545"/>
      <point x="182" y="545"/>
      <point x="182" y="591"/>
      <point x="227" y="591"/>
      <point x="227" y="636"/>
      <point x="273" y="636"/>
      <point x="273" y="682"/>
      <point x="136" y="682"/>
      <point x="136" y="636"/>
      <point x="91" y="636"/>
      <point x="91" y="591"/>
      <point x="45" y="591"/>
    </contour>
    <contour>
      <point x="45" y="0"/>
      <point x="136" y="0"/>
      <point x="136" y="500"/>
      <point x="45" y="500"/>
    </contour>
  </outline>
</glyph>
<glyph name="icircumflex" format="2">
  <advance width="182"/>
  <unicode hex="00EE"/>
  <outline>
    <contour>
      <point x="-91" y="545"/>
      <point x="0" y="545"/>
      <point x="0" y="591"/>
      <point x="91" y="591"/>
      <point x="91" y="636"/>
      <point x="136" y="636"/>
      <point x="136" y="591"/>
      <point x="227" y="591"/>
      <point x="227" y="545"/>
      <point x="318" y="545"/>
      <point x="318" y="591"/>
      <point x="273" y="591"/>
      <point x="273" y="636"/>
      <point x="227" y="636"/>
      <point x="227" y="682"/>
      <point x="182" y="682"/>
      <point x="182" y="727"/>
      <point x="45" y="727"/>
      <point x="45" y="682"/>
      <point x="0" y="682"/>
      <point x="0" y="636"/>
      <point x="-45" y="636"/>
      <point x="-45" y="591"/>
      <point x="-91" y="591"/>
    </contour>
    <contour>
      <point x="45" y="0"/>
      <point x="136" y="0"/>
      <point x="136" y="500"/>
      <point x="45" y="500"/>
    </contour>
  </outline>
</glyph>
<glyph name="idieresis" format="2">
  <advance width="182"/>
  <unicode hex="00EF"/>
  <outline>
    <contour>
      <point x="-45" y="591"/>
      <point x="45" y="591"/>
      <point x="45" y="727"/>
      <point x="-45" y="727"/>
    </contour>
    <contour>
      <point x="182" y="591"/>
      <point x="273" y="591"/>
      <point x="273" y="727"/>
      <point x="182" y="727"/>
    </contour>
    <contour>
      <point x="45" y="0"/>
      <point x="136" y="0"/>
      <point x="136" y="500"/>
      <point x="45" y="500"/>
    </contour>
  </outline>
</glyph>
<glyph name="ntilde" format="2">
  <advance width="545"/>
  <unicode hex="00F1"/>
  <outline>
    <contour>
      <point x="91" y="545"/>
      <point x="182" y="545"/>
      <point x="182" y="636"/>
      <point x="273" y="636"/>
      <point x="273" y="591"/>
      <point x="318" y="591"/>
      <point x="318" y="545"/>
      <point x="455" y="545"/>
      <point x="455" y="591"/>
      <point x="500" y="591"/>
      <point x="500" y="727"/>
      <point x="409" y="727"/>
      <point x="409" y="636"/>
      <point x="318" y="636"/>
      <point x="318" y="682"/>
      <point x="273" y="682"/>
      <point x="273" y="727"/>
      <point x="136" y="727"/>
      <point x="136" y="682"/>
      <point x="91" y="682"/>
    </contour>
    <contour>
      <point x="45" y="0"/>
      <point x="136" y="0"/>
      <point x="136" y="364"/>
      <point x="182" y="364"/>
      <point x="182" y="409"/>
      <point x="364" y="409"/>
      <point x="364" y="318"/>
      <point x="409" y="318"/>
      <point x="409" y="0"/>
      <point x="500" y="0"/>
      <point x="500" y="364"/>
      <point x="455" y="364"/>
      <point x="455" y="455"/>
      <point x="364" y="455"/>
      <point x="364" y="500"/>
      <point x="182" y="500"/>
      <point x="182" y="455"/>
      <point x="136" y="455"/>
      <point x="136" y="500"/>
      <point x="45" y="500"/>
    </contour>
  </outline>
</glyph>
<glyph name="ograve" format="2">
  <advance width="545"/>
  <unicode hex="00F2"/>
  <outline>
    <contour>
      <point x="91" y="636"/>
      <point x="136" y="636"/>
      <point x="136" y="591"/>
      <point x="182" y="591"/>
      <point x="182" y="545"/>
      <point x="318" y="545"/>
      <point x="318" y="591"/>
      <point x="273" y="591"/>
      <point x="273" y="636"/>
      <point x="227" y="636"/>
      <point x="227" y="682"/>
      <point x="91" y="682"/>
    </contour>
    <contour>
      <point x="45" y="136"/>
      <point x="91" y="136"/>
      <point x="91" y="45"/>
      <point x="182" y="45"/>
      <point x="182" y="0"/>
      <point x="364" y="0"/>
      <point x="364" y="45"/>
      <point x="455" y="45"/>
      <point x="455" y="136"/>
      <point x="500" y="136"/>
      <point x="500" y="364"/>
      <point x="455" y="364"/>
      <point x="455" y="455"/>
      <point x="364" y="455"/>
      <point x="364" y="500"/>
      <point x="182" y="500"/>
      <point x="182" y="455"/>
      <point x="91" y="455"/>
      <point x="91" y="364"/>
      <point x="45" y="364"/>
    </contour>
    <contour>
      <point x="136" y="318"/>
      <point x="182" y="318"/>
      <point x="182" y="409"/>
      <point x="364" y="409"/>
      <point x="364" y="318"/>
      <point x="409" y="318"/>
      <point x="409" y="182"/>
      <point x="364" y="182"/>
      <point x="364" y="91"/>
      <point x="182" y="91"/>
      <point x="182" y="182"/>
      <point x="136" y="182"/>
    </contour>
  </outline>
</glyph>
<glyph name="odieresis" format="2">
  <advance width="545"/>
  <unicode hex="00F6"/>
  <outline>
    <contour>
      <point x="136" y="591"/>
      <point x="227" y="591"/>
      <point x="227" y="727"/>
      <point x="136" y="727"/>
    </contour>
    <contour>
      <point x="364" y="591"/>
      <point x="455" y="591"/>
      <point x="455" y="727"/>
      <point x="364" y="727"/>
    </contour>
    <contour>
      <point x="45" y="136"/>
      <point x="91" y="136"/>
      <point x="91" y="45"/>
      <point x="182" y="45"/>
      <point x="182" y="0"/>
      <point x="364" y="0"/>
      <point x="364" y="45"/>
      <point x="455" y="45"/>
      <point x="455" y="136"/>
      <point x="500" y="136"/>
      <point x="500" y="364"/>
      <point x="455" y="364"/>
      <point x="455" y="455"/>
      <point x="364" y="455"/>
      <point x="364" y="500"/>
      <point x="182" y="500"/>
      <point x="182" y="455"/>
      <point x="91" y="455"/>
      <point x="91" y="364"/>
      <point x="45" y="364"/>
    </contour>
    <contour>
      <point x="136" y="318"/>
      <point x="182" y="318"/>
      <point x="182" y="409"/>
      <point x="364" y="409"/>
      <point x="364" y="318"/>
      <point x="409" y="318"/>
      <point x="409" y="182"/>
      <point x="364" y="182"/>
      <point x="364" y="91"/>
      <point x="182" y="91"/>
      <point x="182" y="182"/>
      <point x="136" y="182"/>
    </contour>
  </outline>
</glyph>
<glyph name="ucircumflex" format="2">
  <advance width="545"/>
  <unicode hex="00FB"/>
  <outline>
    <contour>
      <point x="91" y="545"/>
      <point x="182" y="545"/>
      <point x="182" y="591"/>
      <point x="273" y="591"/>
      <point x="273" y="636"/>
      <point x="318" y="636"/>
      <point x="318" y="591"/>
      <point x="409" y="591"/>
      <point x="409" y="545"/>
      <point x="500" y="545"/>
      <point x="500" y="591"/>
      <point x="455" y="591"/>
      <point x="455" y="636"/>
      <point x="409" y="636"/>
      <point x="409" y="682"/>
      <point x="364" y="682"/>
      <point x="364" y="727"/>
      <point x="227" y="727"/>
      <point x="227" y="682"/>
      <point x="182" y="682"/>
      <point x="182" y="636"/>
      <point x="136" y="636"/>
      <point x="136" y="591"/>
      <point x="91" y="591"/>
    </contour>
    <contour>
      <point x="45" y="136"/>
      <point x="91" y="136"/>
      <point x="91" y="45"/>
      <point x="136" y="45"/>
      <point x="136" y="0"/>
      <point x="364" y="0"/>
      <point x="364" y="45"/>
      <point x="409" y="45"/>
      <point x="409" y="0"/>
      <point x="500" y="0"/>
      <point x="500" y="500"/>
      <point x="409" y="500"/>
      <point x="409" y="136"/>
      <point x="364" y="136"/>
      <point x="364" y="91"/>
      <point x="182" y="91"/>
      <point x="182" y="136"/>
      <point x="136" y="136"/>
      <point x="136" y="500"/>
      <point x="45" y="500"/>
    </contour>
  </outline>
</glyph>
<glyph name="udieresis" format="2">
  <advance width="545"/>
  <unicode hex="00FC"/>
  <outline>
    <contour>
      <point x="136" y="591"/>
      <point x="227" y="591"/>
      <point x="227" y="727"/>
      <point x="136" y="727"/>
    </contour>
    <contour>
      <point x="364" y="591"/>
      <point x="455" y="591"/>
      <point x="455" y="727"/>
      <point x="364" y="727"/>
    </contour>
    <contour>
      <point x="45" y="136"/>
      <point x="91" y="136"/>
      <point x="91" y="45"/>
      <point x="136" y="45"/>
      <point x="136" y="0"/>
      <point x="364" y="0"/>
      <point x="364" y="45"/>
      <point x="409" y="45"/>
      <point x="409" y="0"/>
      <point x="500" y="0"/>
      <point x="500" y="500"/>
      <point x="409" y="500"/>
      <point x="409" y="136"/>
      <point x="364" y="136"/>
      <point x="364" y="91"/>
      <point x="182" y="91"/>
      <point x="182" y="136"/>
      <point x="136" y="136"/>
      <point x="136" y="500"/>
      <point x="45" y="500"/>
    </contour>
  </outline>
</glyph>
<glyph name="ydieresis" format="2">
  <advance width="591"/>
  <unicode hex="00FF"/>
  <outline>
    <contour>
      <point x="136" y="591"/>
      <point x="227" y="591"/>
      <point x="227" y="727"/>
      <point x="136" y="727"/>
    </contour>
    <contour>
      <point x="364" y="591"/>
      <point x="455" y="591"/>
      <point x="455" y="727"/>
      <point x="364" y="727"/>
    </contour>
    <contour>
      <point x="45" y="-182"/>
      <point x="227" y="-182"/>
      <point x="227" y="-136"/>
      <point x="273" y="-136"/>
      <point x="273" y="-91"/>
      <point x="318" y="-91"/>
      <point x="318" y="45"/>
      <point x="364" y="45"/>
      <point x="364" y="136"/>
      <point x="409" y="136"/>
      <point x="409" y="227"/>
      <point x="455" y="227"/>
      <point x="455" y="364"/>
      <point x="500" y="364"/>
      <point x="500" y="455"/>
      <point x="545" y="455"/>
      <point x="545" y="500"/>
      <point x="409" y="500"/>
      <point x="409" y="364"/>
      <point x="364" y="364"/>
      <point x="364" y="273"/>
      <point x="318" y="273"/>
      <point x="318" y="136"/>
      <point x="273" y="136"/>
      <point x="273" y="273"/>
      <point x="227" y="273"/>
      <point x="227" y="409"/>
      <point x="182" y="409"/>
      <point x="182" y="500"/>
      <point x="45" y="500"/>
      <point x="45" y="455"/>
      <point x="91" y="455"/>
      <point x="91" y="318"/>
      <point x="136" y="318"/>
      <point x="136" y="227"/>
      <point x="182" y="227"/>
      <point x="182" y="136"/>
      <point x="227" y="136"/>
      <point x="227" y="-91"/>
      <point x="45" y="-91"/>
    </contour>
  </outline>
</glyph>
<glyph name="abreve" format="2">
  <advance width="500"/>
  <unicode hex="0103"/>
  <outline>
    <contour>
      <point x="91" y="636"/>
      <point x="136" y="636"/>
      <point x="136" y="591"/>
      <point x="182" y="591"/>
      <point x="182" y="545"/>
      <point x="364" y="545"/>
      <point x="364" y="591"/>
      <point x="409" y="591"/>
      <point x="409" y="636"/>
      <point x="455" y="636"/>
      <point x="455" y="727"/>
      <point x="364" y="727"/>
      <point x="364" y="636"/>
      <point x="182" y="636"/>
      <point x="182" y="727"/>
      <point x="91" y="727"/>
    </contour>
    <contour>
      <point x="45" y="45"/>
      <point x="91" y="45"/>
      <point x="91" y="0"/>
      <point x="318" y="0"/>
      <point x="318" y="45"/>
      <point x="364" y="45"/>
      <point x="364" y="0"/>
      <point x="455" y="0"/>
      <point x="455" y="409"/>
      <point x="409" y="409"/>
      <point x="409" y="455"/>
      <point x="364" y="455"/>
      <point x="364" y="500"/>
      <point x="136" y="500"/>
      <point x="136" y="455"/>
      <point x="91" y="455"/>
      <point x="91" y="409"/>
      <point x="45" y="409"/>
      <point x="45" y="318"/>
      <point x="136" y="318"/>
      <point x="136" y="364"/>
      <point x="182" y="364"/>
      <point x="182" y="409"/>
      <point x="318" y="409"/>
      <point x="318" y="364"/>
      <point x="364" y="364"/>
      <point x="364" y="273"/>
      <point x="136" y="273"/>
      <point x="136" y="227"/>
      <point x="91" y="227"/>
      <point x="91" y="182"/>
      <point x="45" y="182"/>
    </contour>
    <contour>
      <point x="136" y="182"/>
      <point x="364" y="182"/>
      <point x="364" y="136"/>
      <point x="318" y="136"/>
      <point x="318" y="91"/>
      <point x="136" y="91"/>
    </contour>
  </outline>
</glyph>
<glyph name="Cacute" format="2">
  <advance width="682"/>
  <unicode hex="0106"/>
  <outline>
    <contour>
      <point x="318" y="773"/>
      <point x="455" y="773"/>
      <point x="455" y="818"/>
      <point x="500" y="818"/>
      <point x="500" y="864"/>
      <point x="545" y="864"/>
      <point x="545" y="909"/>
      <point x="409" y="909"/>
      <point x="409" y="864"/>
      <point x="364" y="864"/>
      <point x="364" y="818"/>
      <point x="318" y="818"/>
    </contour>
    <contour>
      <point x="45" y="227"/>
      <point x="91" y="227"/>
      <point x="91" y="136"/>
      <point x="136" y="136"/>
      <point x="136" y="91"/>
      <point x="182" y="91"/>
      <point x="182" y="45"/>
      <point x="227" y="45"/>
      <point x="227" y="0"/>
      <point x="455" y="0"/>
      <point x="455" y="45"/>
      <point x="545" y="45"/>
      <point x="545" y="91"/>
      <point x="591" y="91"/>
      <point x="591" y="182"/>
      <point x="636" y="182"/>
      <point x="636" y="318"/>
      <point x="545" y="318"/>
      <point x="545" y="227"/>
      <point x="500" y="227"/>
      <point x="500" y="136"/>
      <point x="455" y="136"/>
      <point x="455" y="91"/>
      <point x="273" y="91"/>
      <point x="273" y="136"/>
      <point x="227" y="136"/>
      <point x="227" y="182"/>
      <point x="182" y="182"/>
      <point x="182" y="273"/>
      <point x="136" y="273"/>
      <point x="136" y="455"/>
      <point x="182" y="455"/>
      <point x="182" y="545"/>
      <point x="227" y="545"/>
      <point x="227" y="591"/>
      <point x="273" y="591"/>
      <point x="273" y="636"/>
      <point x="455" y="636"/>
      <point x="455" y="591"/>
      <point x="500" y="591"/>
      <point x="500" y="500"/>
      <point x="545" y="500"/>
      <point x="545" y="409"/>
      <point x="636" y="409"/>
      <point x="636" y="545"/>
      <point x="591" y="545"/>
      <point x="591" y="636"/>
      <point x="545" y="636"/>
      <point x="545" y="682"/>
      <point x="455" y="682"/>
      <point x="455" y="727"/>
      <point x="227" y="727"/>
      <point x="227" y="682"/>
      <point x="182" y="682"/>
      <point x="182" y="636"/>
      <point x="136" y="636"/>
      <point x="136" y="591"/>
      <point x="91" y="591"/>
      <point x="91" y="500"/>
      <point x="45" y="500"/>
    </contour>
  </outline>
</glyph>
<glyph name="cdotaccent" format="2">
  <advance width="545"/>
  <unicode hex="010B"/>
  <outline>
    <contour>
      <point x="227" y="591"/>
      <point x="318" y="591"/>
      <point x="318" y="727"/>
      <point x="227" y="727"/>
    </contour>
    <contour>
      <point x="45" y="136"/>
      <point x="91" y="136"/>
      <point x="91" y="45"/>
      <point x="182" y="45"/>
      <point x="182" y="0"/>
      <point x="409" y="0"/>
      <point x="409" y="45"/>
      <point x="455" y="45"/>
      <point x="455" y="91"/>
      <point x="500" y="91"/>
      <point x="500" y="182"/>
      <point x="409" y="182"/>
      <point x="409" y="136"/>
      <point x="364" y="136"/>
      <point x="364" y="91"/>
      <point x="182" y="91"/>
      <point x="182" y="182"/>
      <point x="136" y="182"/>
      <point x="136" y="318"/>
      <point x="182" y="318"/>
      <point x="182" y="409"/>
      <point x="364" y="409"/>
      <point x="364" y="364"/>
      <point x="409" y="364"/>
      <point x="409" y="318"/>
      <point x="500" y="318"/>
      <point x="500" y="409"/>
      <point x="455" y="409"/>
      <point x="455" y="455"/>
      <point x="409" y="455"/>
      <point x="409" y="500"/>
      <point x="182" y="500"/>
      <point x="182" y="455"/>
      <point x="91" y="455"/>
      <point x="91" y="364"/>
      <point x="45" y="364"/>
    </contour>
  </outline>
</glyph>
<glyph name="Dcaron" format="2">
  <advance width="636"/>
  <unicode hex="010E"/>
  <outline>
    <contour>
      <point x="45" y="909"/>
      <point x="91" y="909"/>
      <point x="91" y="864"/>
      <point x="136" y="864"/>
      <point x="136" y="818"/>
      <point x="182" y="818"/>
      <point x="182" y="773"/>
      <point x="318" y="773"/>
      <point x="318" y="818"/>
      <point x="364" y="818"/>
      <point x="364" y="864"/>
      <point x="409" y="864"/>
      <point x="409" y="909"/>
      <point x="455" y="909"/>
      <point x="455" y="955"/>
      <point x="364" y="955"/>
      <point x="364" y="909"/>
      <point x="273" y="909"/>
      <point x="273" y="864"/>
      <point x="227" y="864"/>
      <point x="227" y="909"/>
      <point x="136" y="909"/>
      <point x="136" y="955"/>
      <point x="45" y="955"/>
    </contour>
    <contour>
      <point x="45" y="0"/>
      <point x="364" y="0"/>
      <point x="364" y="45"/>
      <point x="455" y="45"/>
      <point x="455" y="91"/>
      <point x="500" y="91"/>
      <point x="500" y="136"/>
      <point x="545" y="136"/>
      <point x="545" y="227"/>
      <point x="591" y="227"/>
      <point x="591" y="500"/>
      <point x="545" y="500"/>
      <point x="545" y="591"/>
      <point x="500" y="591"/>
      <point x="500" y="636"/>
      <point x="455" y="636"/>
      <point x="455" y="682"/>
      <point x="364" y="682"/>
      <point x="364" y="727"/>
      <point x="45" y="727"/>
    </contour>
    <contour>
      <point x="136" y="636"/>
      <point x="364" y="636"/>
      <point x="364" y="591"/>
      <point x="409" y="591"/>
      <point x="409" y="545"/>
      <point x="455" y="545"/>
      <point x="455" y="455"/>
      <point x="500" y="455"/>
      <point x="500" y="273"/>
      <point x="455" y="273"/>
      <point x="455" y="182"/>
      <point x="409" y="182"/>
      <point x="409" y="136"/>
      <point x="364" y="136"/>
      <point x="364" y="91"/>
      <point x="136" y="91"/>
    </contour>
  </outline>
</glyph>
<glyph name="dcaron" format="2">
  <advance width="545"/>
  <unicode hex="010F"/>
  <outline>
    <contour>
      <point x="545" y="591"/>
      <point x="636" y="591"/>
      <point x="636" y="636"/>
      <point x="682" y="636"/>
      <point x="682" y="773"/>
      <point x="591" y="773"/>
      <point x="591" y="636"/>
      <point x="545" y="636"/>
    </contour>
    <contour>
      <point x="45" y="136"/>
      <point x="91" y="136"/>
      <point x="91" y="45"/>
      <point x="182" y="45"/>
      <point x="182" y="0"/>
      <point x="364" y="0"/>
      <point x="364" y="45"/>
      <point x="409" y="45"/>
      <point x="409" y="0"/>
      <point x="500" y="0"/>
      <point x="500" y="727"/>
      <point x="409" y="727"/>
      <point x="409" y="455"/>
      <point x="364" y="455"/>
      <point x="364" y="500"/>
      <point x="182" y="500"/>
      <point x="182" y="455"/>
      <point x="91" y="455"/>
      <point x="91" y="364"/>
      <point x="45" y="364"/>
    </contour>
    <contour>
      <point x="136" y="318"/>
      <point x="182" y="318"/>
      <point x="182" y="409"/>
      <point x="364" y="409"/>
      <point x="364" y="364"/>
      <point x="409" y="364"/>
      <point x="409" y="136"/>
      <point x="364" y="136"/>
      <point x="364" y="91"/>
      <point x="182" y="91"/>
      <point x="182" y="182"/>
      <point x="136" y="182"/>
    </contour>
  </outline>
</glyph>
<glyph name="Emacron" format="2">
  <advance width="500"/>
  <unicode hex="0112"/>
  <outline>
    <contour>
      <point x="91" y="773"/>
      <point x="455" y="773"/>
      <point x="455" y="864"/>
      <point x="91" y="864"/>
    </contour>
    <contour>
      <point x="45" y="0"/>
      <point x="455" y="0"/>
      <point x="455" y="91"/>
      <point x="136" y="91"/>
      <point x="136" y="318"/>
      <point x="455" y="318"/>
      <point x="455" y="409"/>
      <point x="136" y="409"/>
      <point x="136" y="636"/>
      <point x="455" y="636"/>
      <point x="455" y="727"/>
      <point x="45" y="727"/>
    </contour>
  </outline>
</glyph>
<glyph name="Ebreve" format="2">
  <advance width="500"/>
  <unicode hex="0114"/>
  <outline>
    <contour>
      <point x="91" y="864"/>
      <point x="136" y="864"/>
      <point x="136" y="818"/>
      <point x="182" y="818"/>
      <point x="182" y="773"/>
      <point x="364" y="773"/>
      <point x="364" y="818"/>
      <point x="409" y="818"/>
      <point x="409" y="864"/>
      <point x="455" y="864"/>
      <point x="455" y="955"/>
      <point x="364" y="955"/>
      <point x="364" y="864"/>
      <point x="182" y="864"/>
      <point x="182" y="955"/>
      <point x="91" y="955"/>
    </contour>
    <contour>
      <point x="45" y="0"/>
      <point x="455" y="0"/>
      <point x="455" y="91"/>
      <point x="136" y="91"/>
      <point x="136" y="318"/>
      <point x="455" y="318"/>
      <point x="455" y="409"/>
      <point x="136" y="409"/>
      <point x="136" y="636"/>
      <point x="455" y="636"/>
      <point x="455" y="727"/>
      <point x="45" y="727"/>
    </contour>
  </outline>
</glyph>
<glyph name="Edotaccent" format="2">
  <advance width="500"/>
  <unicode hex="0116"/>
  <outline>
    <contour>
      <point x="227" y="773"/>
      <point x="318" y="773"/>
      <point x="318" y="909"/>
      <point x="227" y="909"/>
    </contour>
    <contour>
      <point x="45" y="0"/>
      <point x="455" y="0"/>
      <point x="455" y="91"/>
      <point x="136" y="91"/>
      <point x="136" y="318"/>
      <point x="455" y="318"/>
      <point x="455" y="409"/>
      <point x="136" y="409"/>
      <point x="136" y="636"/>
      <point x="455" y="636"/>
      <point x="455" y="727"/>
      <point x="45" y="727"/>
    </contour>
  </outline>
</glyph>
<glyph name="Eogonek" format="2">
  <advance width="500"/>
  <unicode hex="0118"/>
  <outline>
    <contour>
      <point x="45" y="0"/>
      <point x="364" y="0"/>
      <point x="364" y="-45"/>
      <point x="318" y="-45"/>
      <point x="318" y="-182"/>
      <point x="364" y="-182"/>
      <point x="364" y="-227"/>
      <point x="545" y="-227"/>
      <point x="545" y="-136"/>
      <point x="409" y="-136"/>
      <point x="409" y="-45"/>
      <point x="455" y="-45"/>
      <point x="455" y="91"/>
      <point x="136" y="91"/>
      <point x="136" y="318"/>
      <point x="455" y="318"/>
      <point x="455" y="409"/>
      <point x="136" y="409"/>
      <point x="136" y="636"/>
      <point x="455" y="636"/>
      <point x="455" y="727"/>
      <point x="45" y="727"/>
    </contour>
  </outline>
</glyph>
<glyph name="eogonek" format="2">
  <advance width="545"/>
  <unicode hex="0119"/>
  <outline>
    <contour>
      <point x="45" y="136"/>
      <point x="91" y="136"/>
      <point x="91" y="45"/>
      <point x="182" y="45"/>
      <point x="182" y="0"/>
      <point x="227" y="0"/>
      <point x="227" y="-45"/>
      <point x="182" y="-45"/>
      <point x="182" y="-182"/>
      <point x="227" y="-182"/>
      <point x="227" y="-227"/>
      <point x="409" y="-227"/>
      <point x="409" y="-136"/>
      <point x="273" y="-136"/>
      <point x="273" y="-45"/>
      <point x="318" y="-45"/>
      <point x="318" y="0"/>
      <point x="364" y="0"/>
      <point x="364" y="45"/>
      <point x="455" y="45"/>
      <point x="455" y="136"/>
      <point x="500" y="136"/>
      <point x="500" y="182"/>
      <point x="409" y="182"/>
      <point x="409" y="136"/>
      <point x="364" y="136"/>
      <point x="364" y="91"/>
      <point x="182" y="91"/>
      <point x="182" y="182"/>
      <point x="136" y="182"/>
      <point x="136" y="227"/>
      <point x="500" y="227"/>
      <point x="500" y="364"/>
      <point x="455" y="364"/>
      <point x="455" y="455"/>
      <point x="364" y="455"/>
      <point x="364" y="500"/>
      <point x="182" y="500"/>
      <point x="182" y="455"/>
      <point x="91" y="455"/>
      <point x="91" y="364"/>
      <point x="45" y="364"/>
    </contour>
    <contour>
      <point x="136" y="364"/>
      <point x="182" y="364"/>
      <point x="182" y="409"/>
      <point x="364" y="409"/>
      <point x="364" y="364"/>
      <point x="409" y="364"/>
      <point x="409" y="318"/>
      <point x="136" y="318"/>
    </contour>
  </outline>
</glyph>
<glyph name="Ecaron" format="2">
  <advance width="500"/>
  <unicode hex="011A"/>
  <outline>
    <contour>
      <point x="45" y="909"/>
      <point x="91" y="909"/>
      <point x="91" y="864"/>
      <point x="136" y="864"/>
      <point x="136" y="818"/>
      <point x="182" y="818"/>
      <point x="182" y="773"/>
      <point x="318" y="773"/>
      <point x="318" y="818"/>
      <point x="364" y="818"/>
      <point x="364" y="864"/>
      <point x="409" y="864"/>
      <point x="409" y="909"/>
      <point x="455" y="909"/>
      <point x="455" y="955"/>
      <point x="364" y="955"/>
      <point x="364" y="909"/>
      <point x="273" y="909"/>
      <point x="273" y="864"/>
      <point x="227" y="864"/>
      <point x="227" y="909"/>
      <point x="136" y="909"/>
      <point x="136" y="955"/>
      <point x="45" y="955"/>
    </contour>
    <contour>
      <point x="45" y="0"/>
      <point x="455" y="0"/>
      <point x="455" y="91"/>
      <point x="136" y="91"/>
      <point x="136" y="318"/>
      <point x="455" y="318"/>
      <point x="455" y="409"/>
      <point x="136" y="409"/>
      <point x="136" y="636"/>
      <point x="455" y="636"/>
      <point x="455" y="727"/>
      <point x="45" y="727"/>
    </contour>
  </outline>
</glyph>
<glyph name="Gdotaccent" format="2">
  <advance width="727"/>
  <unicode hex="0120"/>
  <outline>
    <contour>
      <point x="45" y="227"/>
      <point x="91" y="227"/>
      <point x="91" y="136"/>
      <point x="136" y="136"/>
      <point x="136" y="45"/>
      <point x="227" y="45"/>
      <point x="227" y="0"/>
      <point x="455" y="0"/>
      <point x="455" y="45"/>
      <point x="500" y="45"/>
      <point x="500" y="91"/>
      <point x="545" y="91"/>
      <point x="545" y="0"/>
      <point x="636" y="0"/>
      <point x="636" y="364"/>
      <point x="318" y="364"/>
      <point x="318" y="273"/>
      <point x="545" y="273"/>
      <point x="545" y="182"/>
      <point x="500" y="182"/>
      <point x="500" y="136"/>
      <point x="455" y="136"/>
      <point x="455" y="91"/>
      <point x="273" y="91"/>
      <point x="273" y="136"/>
      <point x="227" y="136"/>
      <point x="227" y="182"/>
      <point x="182" y="182"/>
      <point x="182" y="273"/>
      <point x="136" y="273"/>
      <point x="136" y="455"/>
      <point x="182" y="455"/>
      <point x="182" y="545"/>
      <point x="227" y="545"/>
      <point x="227" y="591"/>
      <point x="273" y="591"/>
      <point x="273" y="636"/>
      <point x="455" y="636"/>
      <point x="455" y="591"/>
      <point x="500" y="591"/>
      <point x="500" y="500"/>
      <point x="545" y="500"/>
      <point x="545" y="455"/>
      <point x="636" y="455"/>
      <point x="636" y="545"/>
      <point x="591" y="545"/>
      <point x="591" y="636"/>
      <point x="545" y="636"/>
      <point x="545" y="682"/>
      <point x="455" y="682"/>
      <point x="455" y="727"/>
      <point x="227" y="727"/>
      <point x="227" y="682"/>
      <point x="182" y="682"/>
      <point x="182" y="636"/>
      <point x="136" y="636"/>
      <point x="136" y="591"/>
      <point x="91" y="591"/>
      <point x="91" y="500"/>
      <point x="45" y="500"/>
    </contour>
    <contour>
      <point x="318" y="-182"/>
      <point x="409" y="-182"/>
      <point x="409" y="-45"/>
      <point x="318" y="-45"/>
    </contour>
  </outline>
</glyph>
<glyph name="Itilde" format="2">
  <advance width="182"/>
  <unicode hex="0128"/>
  <outline>
    <contour>
      <point x="-91" y="773"/>
      <point x="0" y="773"/>
      <point x="0" y="864"/>
      <point x="91" y="864"/>
      <point x="91" y="818"/>
      <point x="136" y="818"/>
      <point x="136" y="773"/>
      <point x="273" y="773"/>
      <point x="273" y="818"/>
      <point x="318" y="818"/>
      <point x="318" y="955"/>
      <point x="227" y="955"/>
      <point x="227" y="864"/>
      <point x="136" y="864"/>
      <point x="136" y="909"/>
      <point x="91" y="909"/>
      <point x="91" y="955"/>
      <point x="-45" y="955"/>
      <point x="-45" y="909"/>
      <point x="-91" y="909"/>
    </contour>
    <contour>
      <point x="45" y="0"/>
      <point x="136" y="0"/>
      <point x="136" y="727"/>
      <point x="45" y="727"/>
    </contour>
  </outline>
</glyph>
<glyph name="itilde" format="2">
  <advance width="182"/>
  <unicode hex="0129"/>
  <outline>
    <contour>
      <point x="-91" y="545"/>
      <point x="0" y="545"/>
      <point x="0" y="636"/>
      <point x="91" y="636"/>
      <point x="91" y="591"/>
      <point x="136" y="591"/>
      <point x="136" y="545"/>
      <point x="273" y="545"/>
      <point x="273" y="591"/>
      <point x="318" y="591"/>
      <point x="318" y="727"/>
      <point x="227" y="727"/>
      <point x="227" y="636"/>
      <point x="136" y="636"/>
      <point x="136" y="682"/>
      <point x="91" y="682"/>
      <point x="91" y="727"/>
      <point x="-45" y="727"/>
      <point x="-45" y="682"/>
      <point x="-91" y="682"/>
    </contour>
    <contour>
      <point x="45" y="0"/>
      <point x="136" y="0"/>
      <point x="136" y="500"/>
      <point x="45" y="500"/>
    </contour>
  </outline>
</glyph>
<glyph name="Imacron" format="2">
  <advance width="182"/>
  <unicode hex="012A"/>
  <outline>
    <contour>
      <point x="-91" y="773"/>
      <point x="273" y="773"/>
      <point x="273" y="864"/>
      <point x="-91" y="864"/>
    </contour>
    <contour>
      <point x="45" y="0"/>
      <point x="136" y="0"/>
      <point x="136" y="727"/>
      <point x="45" y="727"/>
    </contour>
  </outline>
</glyph>
<glyph name="imacron" format="2">
  <advance width="182"/>
  <unicode hex="012B"/>
  <outline>
    <contour>
      <point x="-91" y="591"/>
      <point x="273" y="591"/>
      <point x="273" y="682"/>
      <point x="-91" y="682"/>
    </contour>
    <contour>
      <point x="45" y="0"/>
      <point x="136" y="0"/>
      <point x="136" y="500"/>
      <point x="45" y="500"/>
    </contour>
  </outline>
</glyph>
<glyph name="Ibreve" format="2">
  <advance width="182"/>
  <unicode hex="012C"/>
  <outline>
    <contour>
      <point x="-91" y="864"/>
      <point x="-45" y="864"/>
      <point x="-45" y="818"/>
      <point x="0" y="818"/>
      <point x="0" y="773"/>
      <point x="182" y="773"/>
      <point x="182" y="818"/>
      <point x="227" y="818"/>
      <point x="227" y="864"/>
      <point x="273" y="864"/>
      <point x="273" y="955"/>
      <point x="182" y="955"/>
      <point x="182" y="864"/>
      <point x="0" y="864"/>
      <point x="0" y="955"/>
      <point x="-91" y="955"/>
    </contour>
    <contour>
      <point x="45" y="0"/>
      <point x="136" y="0"/>
      <point x="136" y="727"/>
      <point x="45" y="727"/>
    </contour>
  </outline>
</glyph>
<glyph name="ibreve" format="2">
  <advance width="182"/>
  <unicode hex="012D"/>
  <outline>
    <contour>
      <point x="-91" y="636"/>
      <point x="-45" y="636"/>
      <point x="-45" y="591"/>
      <point x="0" y="591"/>
      <point x="0" y="545"/>
      <point x="182" y="545"/>
      <point x="182" y="591"/>
      <point x="227" y="591"/>
      <point x="227" y="636"/>
      <point x="273" y="636"/>
      <point x="273" y="727"/>
      <point x="182" y="727"/>
      <point x="182" y="636"/>
      <point x="0" y="636"/>
      <point x="0" y="727"/>
      <point x="-91" y="727"/>
    </contour>
    <contour>
      <point x="45" y="0"/>
      <point x="136" y="0"/>
      <point x="136" y="500"/>
      <point x="45" y="500"/>
    </contour>
  </outline>
</glyph>
<glyph name="Iogonek" format="2">
  <advance width="182"/>
  <unicode hex="012E"/>
  <outline>
    <contour>
      <point x="-45" y="-182"/>
      <point x="0" y="-182"/>
      <point x="0" y="-227"/>
      <point x="182" y="-227"/>
      <point x="182" y="-136"/>
      <point x="45" y="-136"/>
      <point x="45" y="-45"/>
      <point x="91" y="-45"/>
      <point x="91" y="0"/>
      <point x="136" y="0"/>
      <point x="136" y="727"/>
      <point x="45" y="727"/>
      <point x="45" y="0"/>
      <point x="0" y="0"/>
      <point x="0" y="-45"/>
      <point x="-45" y="-45"/>
    </contour>
  </outline>
</glyph>
<glyph name="dotlessi" format="2">
  <advance width="182"/>
  <unicode hex="0131"/>
  <outline>
    <contour>
      <point x="45" y="0"/>
      <point x="136" y="0"/>
      <point x="136" y="500"/>
      <point x="45" y="500"/>
    </contour>
  </outline>
</glyph>
<glyph name="Jcircumflex" format="2">
  <advance width="273"/>
  <unicode hex="0134"/>
  <outline>
    <contour>
      <point x="0" y="773"/>
      <point x="91" y="773"/>
      <point x="91" y="818"/>
      <point x="182" y="818"/>
      <point x="182" y="864"/>
      <point x="227" y="864"/>
      <point x="227" y="818"/>
      <point x="318" y="818"/>
      <point x="318" y="773"/>
      <point x="409" y="773"/>
      <point x="409" y="818"/>
      <point x="364" y="818"/>
      <point x="364" y="864"/>
      <point x="318" y="864"/>
      <point x="318" y="909"/>
      <point x="273" y="909"/>
      <point x="273" y="955"/>
      <point x="136" y="955"/>
      <point x="136" y="909"/>
      <point x="91" y="909"/>
      <point x="91" y="864"/>
      <point x="45" y="864"/>
      <point x="45" y="818"/>
      <point x="0" y="818"/>
    </contour>
    <contour>
      <point x="0" y="0"/>
      <point x="136" y="0"/>
      <point x="136" y="45"/>
      <point x="227" y="45"/>
      <point x="227" y="727"/>
      <point x="136" y="727"/>
      <point x="136" y="91"/>
      <point x="0" y="91"/>
    </contour>
  </outline>
</glyph>
<glyph name="jcircumflex" format="2">
  <advance width="182"/>
  <unicode hex="0135"/>
  <outline>
    <contour>
      <point x="-91" y="545"/>
      <point x="0" y="545"/>
      <point x="0" y="591"/>
      <point x="91" y="591"/>
      <point x="91" y="636"/>
      <point x="136" y="636"/>
      <point x="136" y="591"/>
      <point x="227" y="591"/>
      <point x="227" y="545"/>
      <point x="318" y="545"/>
      <point x="318" y="591"/>
      <point x="273" y="591"/>
      <point x="273" y="636"/>
      <point x="227" y="636"/>
      <point x="227" y="682"/>
      <point x="182" y="682"/>
      <point x="182" y="727"/>
      <point x="45" y="727"/>
      <point x="45" y="682"/>
      <point x="0" y="682"/>
      <point x="0" y="636"/>
      <point x="-45" y="636"/>
      <point x="-45" y="591"/>
      <point x="-91" y="591"/>
    </contour>
    <contour>
      <point x="-45" y="-182"/>
      <point x="91" y="-182"/>
      <point x="91" y="-136"/>
      <point x="136" y="-136"/>
      <point x="136" y="500"/>
      <point x="45" y="500"/>
      <point x="45" y="-91"/>
      <point x="-45" y="-91"/>
    </contour>
  </outline>
</glyph>
<glyph name="Lacute" format="2">
  <advance width="455"/>
  <unicode hex="0139"/>
  <outline>
    <contour>
      <point x="45" y="773"/>
      <point x="182" y="773"/>
      <point x="182" y="818"/>
      <point x="227" y="818"/>
      <point x="227" y="864"/>
      <point x="273" y="864"/>
      <point x="273" y="909"/>
      <point x="136" y="909"/>
      <point x="136" y="864"/>
      <point x="91" y="864"/>
      <point x="91" y="818"/>
      <point x="45" y="818"/>
    </contour>
    <contour>
      <point x="45" y="0"/>
      <point x="455" y="0"/>
      <point x="455" y="91"/>
      <point x="136" y="91"/>
      <point x="136" y="727"/>
      <point x="45" y="727"/>
    </contour>
  </outline>
</glyph>
<glyph name="lacute" format="2">
  <advance width="182"/>
  <unicode hex="013A"/>
  <outline>
    <contour>
      <point x="45" y="0"/>
      <point x="136" y="0"/>
      <point x="136" y="727"/>
      <point x="182" y="727"/>
      <point x="182" y="773"/>
      <point x="227" y="773"/>
      <point x="227" y="818"/>
      <point x="273" y="818"/>
      <point x="273" y="864"/>
      <point x="136" y="864"/>
      <point x="136" y="818"/>
      <point x="91" y="818"/>
      <point x="91" y="773"/>
      <point x="45" y="773"/>
    </contour>
  </outline>
</glyph>
<glyph name="Lcaron" format="2">
  <advance width="455"/>
  <unicode hex="013D"/>
  <outline>
    <contour>
      <point x="273" y="591"/>
      <point x="364" y="591"/>
      <point x="364" y="682"/>
      <point x="409" y="682"/>
      <point x="409" y="773"/>
      <point x="318" y="773"/>
      <point x="318" y="682"/>
      <point x="273" y="682"/>
    </contour>
    <contour>
      <point x="45" y="0"/>
      <point x="455" y="0"/>
      <point x="455" y="91"/>
      <point x="136" y="91"/>
      <point x="136" y="727"/>
      <point x="45" y="727"/>
    </contour>
  </outline>
</glyph>
<glyph name="lcaron" format="2">
  <advance width="182"/>
  <unicode hex="013E"/>
  <outline>
    <contour>
      <point x="227" y="591"/>
      <point x="318" y="591"/>
      <point x="318" y="773"/>
      <point x="227" y="773"/>
    </contour>
    <contour>
      <point x="45" y="0"/>
      <point x="136" y="0"/>
      <point x="136" y="727"/>
      <point x="45" y="727"/>
    </contour>
  </outline>
</glyph>
<glyph name="Nacute" format="2">
  <advance width="636"/>
  <unicode hex="0143"/>
  <outline>
    <contour>
      <point x="273" y="773"/>
      <point x="409" y="773"/>
      <point x="409" y="818"/>
      <point x="455" y="818"/>
      <point x="455" y="864"/>
      <point x="500" y="864"/>
      <point x="500" y="909"/>
      <point x="364" y="909"/>
      <point x="364" y="864"/>
      <point x="318" y="864"/>
      <point x="318" y="818"/>
      <point x="273" y="818"/>
    </contour>
    <contour>
      <point x="45" y="0"/>
      <point x="136" y="0"/>
      <point x="136" y="545"/>
      <point x="182" y="545"/>
      <point x="182" y="455"/>
      <point x="227" y="455"/>
      <point x="227" y="364"/>
      <point x="273" y="364"/>
      <point x="273" y="318"/>
      <point x="318" y="318"/>
      <point x="318" y="227"/>
      <point x="364" y="227"/>
      <point x="364" y="136"/>
      <point x="409" y="136"/>
      <point x="409" y="91"/>
      <point x="455" y="91"/>
      <point x="455" y="0"/>
      <point x="591" y="0"/>
      <point x="591" y="727"/>
      <point x="500" y="727"/>
      <point x="500" y="182"/>
      <point x="455" y="182"/>
      <point x="455" y="273"/>
      <point x="409" y="273"/>
      <point x="409" y="364"/>
      <point x="364" y="364"/>
      <point x="364" y="409"/>
      <point x="318" y="409"/>
      <point x="318" y="500"/>
      <point x="273" y="500"/>
      <point x="273" y="591"/>
      <point x="227" y="591"/>
      <point x="227" y="636"/>
      <point x="182" y="636"/>
      <point x="182" y="727"/>
      <point x="45" y="727"/>
    </contour>
  </outline>
</glyph>
<glyph name="nacute" format="2">
  <advance width="545"/>
  <unicode hex="0144"/>
  <outline>
    <contour>
      <point x="227" y="545"/>
      <point x="364" y="545"/>
      <point x="364" y="591"/>
      <point x="409" y="591"/>
      <point x="409" y="636"/>
      <point x="455" y="636"/>
      <point x="455" y="682"/>
      <point x="318" y="682"/>
      <point x="318" y="636"/>
      <point x="273" y="636"/>
      <point x="273" y="591"/>
      <point x="227" y="591"/>
    </contour>
    <contour>
      <point x="45" y="0"/>
      <point x="136" y="0"/>
      <point x="136" y="364"/>
      <point x="182" y="364"/>
      <point x="182" y="409"/>
      <point x="364" y="409"/>
      <point x="364" y="318"/>
      <point x="409" y="318"/>
      <point x="409" y="0"/>
      <point x="500" y="0"/>
      <point x="500" y="364"/>
      <point x="455" y="364"/>
      <point x="455" y="455"/>
      <point x="364" y="455"/>
      <point x="364" y="500"/>
      <point x="182" y="500"/>
      <point x="182" y="455"/>
      <point x="136" y="455"/>
      <point x="136" y="500"/>
      <point x="45" y="500"/>
    </contour>
  </outline>
</glyph>
<glyph name="ncaron" format="2">
  <advance width="545"/>
  <unicode hex="0148"/>
  <outline>
    <contour>
      <point x="91" y="682"/>
      <point x="136" y="682"/>
      <point x="136" y="636"/>
      <point x="182" y="636"/>
      <point x="182" y="591"/>
      <point x="227" y="591"/>
      <point x="227" y="545"/>
      <point x="364" y="545"/>
      <point x="364" y="591"/>
      <point x="409" y="591"/>
      <point x="409" y="636"/>
      <point x="455" y="636"/>
      <point x="455" y="682"/>
      <point x="500" y="682"/>
      <point x="500" y="727"/>
      <point x="409" y="727"/>
      <point x="409" y="682"/>
      <point x="318" y="682"/>
      <point x="318" y="636"/>
      <point x="273" y="636"/>
      <point x="273" y="682"/>
      <point x="182" y="682"/>
      <point x="182" y="727"/>
      <point x="91" y="727"/>
    </contour>
    <contour>
      <point x="45" y="0"/>
      <point x="136" y="0"/>
      <point x="136" y="364"/>
      <point x="182" y="364"/>
      <point x="182" y="409"/>
      <point x="364" y="409"/>
      <point x="364" y="318"/>
      <point x="409" y="318"/>
      <point x="409" y="0"/>
      <point x="500" y="0"/>
      <point x="500" y="364"/>
      <point x="455" y="364"/>
      <point x="455" y="455"/>
      <point x="364" y="455"/>
      <point x="364" y="500"/>
      <point x="182" y="500"/>
      <point x="182" y="455"/>
      <point x="136" y="455"/>
      <point x="136" y="500"/>
      <point x="45" y="500"/>
    </contour>
  </outline>
</glyph>
<glyph name="racute" format="2">
  <advance width="318"/>
  <unicode hex="0155"/>
  <outline>
    <contour>
      <point x="136" y="545"/>
      <point x="273" y="545"/>
      <point x="273" y="591"/>
      <point x="318" y="591"/>
      <point x="318" y="636"/>
      <point x="364" y="636"/>
      <point x="364" y="682"/>
      <point x="227" y="682"/>
      <point x="227" y="636"/>
      <point x="182" y="636"/>
      <point x="182" y="591"/>
      <point x="136" y="591"/>
    </contour>
    <contour>
      <point x="45" y="0"/>
      <point x="136" y="0"/>
      <point x="136" y="364"/>
      <point x="182" y="364"/>
      <point x="182" y="409"/>
      <point x="318" y="409"/>
      <point x="318" y="500"/>
      <point x="182" y="500"/>
      <point x="182" y="455"/>
      <point x="136" y="455"/>
      <point x="136" y="500"/>
      <point x="45" y="500"/>
    </contour>
  </outline>
</glyph>
<glyph name="Rcaron" format="2">
  <advance width="636"/>
  <unicode hex="0158"/>
  <outline>
    <contour>
      <point x="91" y="909"/>
      <point x="136" y="909"/>
      <point x="136" y="864"/>
      <point x="182" y="864"/>
      <point x="182" y="818"/>
      <point x="227" y="818"/>
      <point x="227" y="773"/>
      <point x="364" y="773"/>
      <point x="364" y="818"/>
      <point x="409" y="818"/>
      <point x="409" y="864"/>
      <point x="455" y="864"/>
      <point x="455" y="909"/>
      <point x="500" y="909"/>
      <point x="500" y="955"/>
      <point x="409" y="955"/>
      <point x="409" y="909"/>
      <point x="318" y="909"/>
      <point x="318" y="864"/>
      <point x="273" y="864"/>
      <point x="273" y="909"/>
      <point x="182" y="909"/>
      <point x="182" y="955"/>
      <point x="91" y="955"/>
    </contour>
    <contour>
      <point x="45" y="0"/>
      <point x="136" y="0"/>
      <point x="136" y="273"/>
      <point x="364" y="273"/>
      <point x="364" y="227"/>
      <point x="409" y="227"/>
      <point x="409" y="136"/>
      <point x="455" y="136"/>
      <point x="455" y="45"/>
      <point x="500" y="45"/>
      <point x="500" y="0"/>
      <point x="591" y="0"/>
      <point x="591" y="45"/>
      <point x="545" y="45"/>
      <point x="545" y="136"/>
      <point x="500" y="136"/>
      <point x="500" y="227"/>
      <point x="455" y="227"/>
      <point x="455" y="273"/>
      <point x="409" y="273"/>
      <point x="409" y="318"/>
      <point x="455" y="318"/>
      <point x="455" y="364"/>
      <point x="500" y="364"/>
      <point x="500" y="409"/>
      <point x="545" y="409"/>
      <point x="545" y="636"/>
      <point x="500" y="636"/>
      <point x="500" y="682"/>
      <point x="409" y="682"/>
      <point x="409" y="727"/>
      <point x="45" y="727"/>
    </contour>
    <contour>
      <point x="136" y="636"/>
      <point x="409" y="636"/>
      <point x="409" y="591"/>
      <point x="455" y="591"/>
      <point x="455" y="409"/>
      <point x="409" y="409"/>
      <point x="409" y="364"/>
      <point x="136" y="364"/>
    </contour>
  </outline>
</glyph>
<glyph name="sacute" format="2">
  <advance width="500"/>
  <unicode hex="015B"/>
  <outline>
    <contour>
      <point x="227" y="545"/>
      <point x="364" y="545"/>
      <point x="364" y="591"/>
      <point x="409" y="591"/>
      <point x="409" y="636"/>
      <point x="455" y="636"/>
      <point x="455" y="682"/>
      <point x="318" y="682"/>
      <point x="318" y="636"/>
      <point x="273" y="636"/>
      <point x="273" y="591"/>
      <point x="227" y="591"/>
    </contour>
    <contour>
      <point x="45" y="91"/>
      <point x="91" y="91"/>
      <point x="91" y="45"/>
      <point x="136" y="45"/>
      <point x="136" y="0"/>
      <point x="364" y="0"/>
      <point x="364" y="45"/>
      <point x="409" y="45"/>
      <point x="409" y="91"/>
      <point x="455" y="91"/>
      <point x="455" y="227"/>
      <point x="409" y="227"/>
      <point x="409" y="273"/>
      <point x="273" y="273"/>
      <point x="273" y="318"/>
      <point x="136" y="318"/>
      <point x="136" y="364"/>
      <point x="182" y="364"/>
      <point x="182" y="409"/>
      <point x="318" y="409"/>
      <point x="318" y="364"/>
      <point x="364" y="364"/>
      <point x="364" y="318"/>
      <point x="455" y="318"/>
      <point x="455" y="409"/>
      <point x="409" y="409"/>
      <point x="409" y="455"/>
      <point x="364" y="455"/>
      <point x="364" y="500"/>
      <point x="136" y="500"/>
      <point x="136" y="455"/>
      <point x="91" y="455"/>
      <point x="91" y="409"/>
      <point x="45" y="409"/>
      <point x="45" y="273"/>
      <point x="91" y="273"/>
      <point x="91" y="227"/>
      <point x="227" y="227"/>
      <point x="227" y="182"/>
      <point x="364" y="182"/>
      <point x="364" y="136"/>
      <point x="318" y="136"/>
      <point x="318" y="91"/>
      <point x="182" y="91"/>
      <point x="182" y="136"/>
      <point x="136" y="136"/>
      <point x="136" y="182"/>
      <point x="45" y="182"/>
    </contour>
  </outline>
</glyph>
<glyph name="scedilla" format="2">
  <advance width="500"/>
  <unicode hex="015F"/>
  <outline>
    <contour>
      <point x="45" y="91"/>
      <point x="91" y="91"/>
      <point x="91" y="45"/>
      <point x="136" y="45"/>
      <point x="136" y="0"/>
      <point x="227" y="0"/>
      <point x="227" y="-136"/>
      <point x="318" y="-136"/>
      <point x="318" y="-227"/>
      <point x="273" y="-227"/>
      <point x="273" y="-273"/>
      <point x="364" y="-273"/>
      <point x="364" y="-227"/>
      <point x="409" y="-227"/>
      <point x="409" y="-91"/>
      <point x="364" y="-91"/>
      <point x="364" y="-45"/>
      <point x="318" y="-45"/>
      <point x="318" y="0"/>
      <point x="364" y="0"/>
      <point x="364" y="45"/>
      <point x="409" y="45"/>
      <point x="409" y="91"/>
      <point x="455" y="91"/>
      <point x="455" y="227"/>
      <point x="409" y="227"/>
      <point x="409" y="273"/>
      <point x="273" y="273"/>
      <point x="273" y="318"/>
      <point x="136" y="318"/>
      <point x="136" y="364"/>
      <point x="182" y="364"/>
      <point x="182" y="409"/>
      <point x="318" y="409"/>
      <point x="318" y="364"/>
      <point x="364" y="364"/>
      <point x="364" y="318"/>
      <point x="455" y="318"/>
      <point x="455" y="409"/>
      <point x="409" y="409"/>
      <point x="409" y="455"/>
      <point x="364" y="455"/>
      <point x="364" y="500"/>
      <point x="136" y="500"/>
      <point x="136" y="455"/>
      <point x="91" y="455"/>
      <point x="91" y="409"/>
      <point x="45" y="409"/>
      <point x="45" y="273"/>
      <point x="91" y="273"/>
      <point x="91" y="227"/>
      <point x="227" y="227"/>
      <point x="227" y="182"/>
      <point x="364" y="182"/>
      <point x="364" y="136"/>
      <point x="318" y="136"/>
      <point x="318" y="91"/>
      <point x="182" y="91"/>
      <point x="182" y="136"/>
      <point x="136" y="136"/>
      <point x="136" y="182"/>
      <point x="45" y="182"/>
    </contour>
  </outline>
</glyph>
<glyph name="Scaron" format="2">
  <advance width="591"/>
  <unicode hex="0160"/>
  <outline>
    <contour>
      <point x="91" y="909"/>
      <point x="136" y="909"/>
      <point x="136" y="864"/>
      <point x="182" y="864"/>
      <point x="182" y="818"/>
      <point x="227" y="818"/>
      <point x="227" y="773"/>
      <point x="364" y="773"/>
      <point x="364" y="818"/>
      <point x="409" y="818"/>
      <point x="409" y="864"/>
      <point x="455" y="864"/>
      <point x="455" y="909"/>
      <point x="500" y="909"/>
      <point x="500" y="955"/>
      <point x="409" y="955"/>
      <point x="409" y="909"/>
      <point x="318" y="909"/>
      <point x="318" y="864"/>
      <point x="273" y="864"/>
      <point x="273" y="909"/>
      <point x="182" y="909"/>
      <point x="182" y="955"/>
      <point x="91" y="955"/>
    </contour>
    <contour>
      <point x="45" y="136"/>
      <point x="91" y="136"/>
      <point x="91" y="91"/>
      <point x="136" y="91"/>
      <point x="136" y="45"/>
      <point x="182" y="45"/>
      <point x="182" y="0"/>
      <point x="409" y="0"/>
      <point x="409" y="45"/>
      <point x="500" y="45"/>
      <point x="500" y="91"/>
      <point x="545" y="91"/>
      <point x="545" y="273"/>
      <point x="500" y="273"/>
      <point x="500" y="364"/>
      <point x="409" y="364"/>
      <point x="409" y="409"/>
      <point x="273" y="409"/>
      <point x="273" y="455"/>
      <point x="182" y="455"/>
      <point x="182" y="500"/>
      <point x="136" y="500"/>
      <point x="136" y="591"/>
      <point x="182" y="591"/>
      <point x="182" y="636"/>
      <point x="364" y="636"/>
      <point x="364" y="591"/>
      <point x="409" y="591"/>
      <point x="409" y="545"/>
      <point x="455" y="545"/>
      <point x="455" y="500"/>
      <point x="545" y="500"/>
      <point x="545" y="591"/>
      <point x="500" y="591"/>
      <point x="500" y="636"/>
      <point x="455" y="636"/>
      <point x="455" y="682"/>
      <point x="409" y="682"/>
      <point x="409" y="727"/>
      <point x="182" y="727"/>
      <point x="182" y="682"/>
      <point x="91" y="682"/>
      <point x="91" y="636"/>
      <point x="45" y="636"/>
      <point x="45" y="455"/>
      <point x="91" y="455"/>
      <point x="91" y="409"/>
      <point x="136" y="409"/>
      <point x="136" y="364"/>
      <point x="273" y="364"/>
      <point x="273" y="318"/>
      <point x="364" y="318"/>
      <point x="364" y="273"/>
      <point x="455" y="273"/>
      <point x="455" y="136"/>
      <point x="409" y="136"/>
      <point x="409" y="91"/>
      <point x="227" y="91"/>
      <point x="227" y="136"/>
      <point x="182" y="136"/>
      <point x="182" y="182"/>
      <point x="136" y="182"/>
      <point x="136" y="273"/>
      <point x="45" y="273"/>
    </contour>
  </outline>
</glyph>
<glyph name="Tcaron" format="2">
  <advance width="636"/>
  <unicode hex="0164"/>
  <outline>
    <contour>
      <point x="136" y="909"/>
      <point x="182" y="909"/>
      <point x="182" y="864"/>
      <point x="227" y="864"/>
      <point x="227" y="818"/>
      <point x="273" y="818"/>
      <point x="273" y="773"/>
      <point x="409" y="773"/>
      <point x="409" y="818"/>
      <point x="455" y="818"/>
      <point x="455" y="864"/>
      <point x="500" y="864"/>
      <point x="500" y="909"/>
      <point x="545" y="909"/>
      <point x="545" y="955"/>
      <point x="455" y="955"/>
      <point x="455" y="909"/>
      <point x="364" y="909"/>
      <point x="364" y="864"/>
      <point x="318" y="864"/>
      <point x="318" y="909"/>
      <point x="227" y="909"/>
      <point x="227" y="955"/>
      <point x="136" y="955"/>
    </contour>
    <contour>
      <point x="45" y="636"/>
      <point x="273" y="636"/>
      <point x="273" y="0"/>
      <point x="364" y="0"/>
      <point x="364" y="636"/>
      <point x="591" y="636"/>
      <point x="591" y="727"/>
      <point x="45" y="727"/>
    </contour>
  </outline>
</glyph>
<glyph name="tcaron" format="2">
  <advance width="455"/>
  <unicode hex="0165"/>
  <outline>
    <contour>
      <point x="273" y="591"/>
      <point x="364" y="591"/>
      <point x="364" y="682"/>
      <point x="409" y="682"/>
      <point x="409" y="773"/>
      <point x="318" y="773"/>
      <point x="318" y="682"/>
      <point x="273" y="682"/>
    </contour>
    <contour>
      <point x="0" y="409"/>
      <point x="136" y="409"/>
      <point x="136" y="45"/>
      <point x="182" y="45"/>
      <point x="182" y="0"/>
      <point x="409" y="0"/>
      <point x="409" y="91"/>
      <point x="227" y="91"/>
      <point x="227" y="409"/>
      <point x="409" y="409"/>
      <point x="409" y="500"/>
      <point x="227" y="500"/>
      <point x="227" y="636"/>
      <point x="136" y="636"/>
      <point x="136" y="500"/>
      <point x="0" y="500"/>
    </contour>
  </outline>
</glyph>
<glyph name="umacron" format="2">
  <advance width="545"/>
  <unicode hex="016B"/>
  <outline>
    <contour>
      <point x="91" y="591"/>
      <point x="455" y="591"/>
      <point x="455" y="682"/>
      <point x="91" y="682"/>
    </contour>
    <contour>
      <point x="45" y="136"/>
      <point x="91" y="136"/>
      <point x="91" y="45"/>
      <point x="136" y="45"/>
      <point x="136" y="0"/>
      <point x="364" y="0"/>
      <point x="364" y="45"/>
      <point x="409" y="45"/>
      <point x="409" y="0"/>
      <point x="500" y="0"/>
      <point x="500" y="500"/>
      <point x="409" y="500"/>
      <point x="409" y="136"/>
      <point x="364" y="136"/>
      <point x="364" y="91"/>
      <point x="182" y="91"/>
      <point x="182" y="136"/>
      <point x="136" y="136"/>
      <point x="136" y="500"/>
      <point x="45" y="500"/>
    </contour>
  </outline>
</glyph>
<glyph name="uring" format="2">
  <advance width="545"/>
  <unicode hex="016F"/>
  <outline>
    <contour>
      <point x="136" y="591"/>
      <point x="182" y="591"/>
      <point x="182" y="545"/>
      <point x="409" y="545"/>
      <point x="409" y="591"/>
      <point x="455" y="591"/>
      <point x="455" y="773"/>
      <point x="409" y="773"/>
      <point x="409" y="818"/>
      <point x="182" y="818"/>
      <point x="182" y="773"/>
      <point x="136" y="773"/>
    </contour>
    <contour>
      <point x="45" y="136"/>
      <point x="91" y="136"/>
      <point x="91" y="45"/>
      <point x="136" y="45"/>
      <point x="136" y="0"/>
      <point x="364" y="0"/>
      <point x="364" y="45"/>
      <point x="409" y="45"/>
      <point x="409" y="0"/>
      <point x="500" y="0"/>
      <point x="500" y="500"/>
      <point x="409" y="500"/>
      <point x="409" y="136"/>
      <point x="364" y="136"/>
      <point x="364" y="91"/>
      <point x="182" y="91"/>
      <point x="182" y="136"/>
      <point x="136" y="136"/>
      <point x="136" y="500"/>
      <point x="45" y="500"/>
    </contour>
    <contour>
      <point x="227" y="727"/>
      <point x="364" y="727"/>
      <point x="364" y="636"/>
      <point x="227" y="636"/>
    </contour>
  </outline>
</glyph>
<glyph name="Uogonek" format="2">
  <advance width="636"/>
  <unicode hex="0172"/>
  <outline>
    <contour>
      <point x="45" y="182"/>
      <point x="91" y="182"/>
      <point x="91" y="91"/>
      <point x="136" y="91"/>
      <point x="136" y="45"/>
      <point x="182" y="45"/>
      <point x="182" y="0"/>
      <point x="227" y="0"/>
      <point x="227" y="-45"/>
      <point x="182" y="-45"/>
      <point x="182" y="-182"/>
      <point x="227" y="-182"/>
      <point x="227" y="-227"/>
      <point x="409" y="-227"/>
      <point x="409" y="-136"/>
      <point x="273" y="-136"/>
      <point x="273" y="-45"/>
      <point x="318" y="-45"/>
      <point x="318" y="0"/>
      <point x="455" y="0"/>
      <point x="455" y="45"/>
      <point x="500" y="45"/>
      <point x="500" y="91"/>
      <point x="545" y="91"/>
      <point x="545" y="182"/>
      <point x="591" y="182"/>
      <point x="591" y="727"/>
      <point x="500" y="727"/>
      <point x="500" y="182"/>
      <point x="455" y="182"/>
      <point x="455" y="136"/>
      <point x="409" y="136"/>
      <point x="409" y="91"/>
      <point x="227" y="91"/>
      <point x="227" y="136"/>
      <point x="182" y="136"/>
      <point x="182" y="182"/>
      <point x="136" y="182"/>
      <point x="136" y="727"/>
      <point x="45" y="727"/>
    </contour>
  </outline>
</glyph>
<glyph name="uogonek" format="2">
  <advance width="545"/>
  <unicode hex="0173"/>
  <outline>
    <contour>
      <point x="45" y="136"/>
      <point x="91" y="136"/>
      <point x="91" y="45"/>
      <point x="136" y="45"/>
      <point x="136" y="0"/>
      <point x="364" y="0"/>
      <point x="364" y="45"/>
      <point x="409" y="45"/>
      <point x="409" y="0"/>
      <point x="364" y="0"/>
      <point x="364" y="-45"/>
      <point x="318" y="-45"/>
      <point x="318" y="-182"/>
      <point x="364" y="-182"/>
      <point x="364" y="-227"/>
      <point x="545" y="-227"/>
      <point x="545" y="-136"/>
      <point x="409" y="-136"/>
      <point x="409" y="-45"/>
      <point x="455" y="-45"/>
      <point x="455" y="0"/>
      <point x="500" y="0"/>
      <point x="500" y="500"/>
      <point x="409" y="500"/>
      <point x="409" y="136"/>
      <point x="364" y="136"/>
      <point x="364" y="91"/>
      <point x="182" y="91"/>
      <point x="182" y="136"/>
      <point x="136" y="136"/>
      <point x="136" y="500"/>
      <point x="45" y="500"/>
    </contour>
  </outline>
</glyph>
<glyph name="zacute" format="2">
  <advance width="500"/>
  <unicode hex="017A"/>
  <outline>
    <contour>
      <point x="227" y="545"/>
      <point x="364" y="545"/>
      <point x="364" y="591"/>
      <point x="409" y="591"/>
      <point x="409" y="636"/>
      <point x="455" y="636"/>
      <point x="455" y="682"/>
      <point x="318" y="682"/>
      <point x="318" y="636"/>
      <point x="273" y="636"/>
      <point x="273" y="591"/>
      <point x="227" y="591"/>
    </contour>
    <contour>
      <point x="45" y="0"/>
      <point x="455" y="0"/>
      <point x="455" y="91"/>
      <point x="182" y="91"/>
      <point x="182" y="136"/>
      <point x="227" y="136"/>
      <point x="227" y="182"/>
      <point x="273" y="182"/>
      <point x="273" y="227"/>
      <point x="318" y="227"/>
      <point x="318" y="273"/>
      <point x="364" y="273"/>
      <point x="364" y="318"/>
      <point x="409" y="318"/>
      <point x="409" y="364"/>
      <point x="455" y="364"/>
      <point x="455" y="500"/>
      <point x="45" y="500"/>
      <point x="45" y="409"/>
      <point x="318" y="409"/>
      <point x="318" y="364"/>
      <point x="273" y="364"/>
      <point x="273" y="318"/>
      <point x="227" y="318"/>
      <point x="227" y="273"/>
      <point x="182" y="273"/>
      <point x="182" y="227"/>
      <point x="136" y="227"/>
      <point x="136" y="182"/>
      <point x="91" y="182"/>
      <point x="91" y="136"/>
      <point x="45" y="136"/>
    </contour>
  </outline>
</glyph>
<glyph name="Zdotaccent" format="2">
  <advance width="591"/>
  <unicode hex="017B"/>
  <outline>
    <contour>
      <point x="273" y="773"/>
      <point x="364" y="773"/>
      <point x="364" y="909"/>
      <point x="273" y="909"/>
    </contour>
    <contour>
      <point x="45" y="0"/>
      <point x="545" y="0"/>
      <point x="545" y="91"/>
      <point x="182" y="91"/>
      <point x="182" y="136"/>
      <point x="227" y="136"/>
      <point x="227" y="227"/>
      <point x="273" y="227"/>
      <point x="273" y="273"/>
      <point x="318" y="273"/>
      <point x="318" y="364"/>
      <point x="364" y="364"/>
      <point x="364" y="409"/>
      <point x="409" y="409"/>
      <point x="409" y="455"/>
      <point x="455" y="455"/>
      <point x="455" y="545"/>
      <point x="500" y="545"/>
      <point x="500" y="591"/>
      <point x="545" y="591"/>
      <point x="545" y="727"/>
      <point x="45" y="727"/>
      <point x="45" y="636"/>
      <point x="409" y="636"/>
      <point x="409" y="591"/>
      <point x="364" y="591"/>
      <point x="364" y="500"/>
      <point x="318" y="500"/>
      <point x="318" y="455"/>
      <point x="273" y="455"/>
      <point x="273" y="364"/>
      <point x="227" y="364"/>
      <point x="227" y="318"/>
      <point x="182" y="318"/>
      <point x="182" y="273"/>
      <point x="136" y="273"/>
      <point x="136" y="182"/>
      <point x="91" y="182"/>
      <point x="91" y="136"/>
      <point x="45" y="136"/>
    </contour>
  </outline>
</glyph>
<glyph name="gcaron" format="2">
  <advance width="545"/>
  <unicode hex="01E7"/>
  <outline>
    <contour>
      <point x="91" y="682"/>
      <point x="136" y="682"/>
      <point x="136" y="636"/>
      <point x="182" y="636"/>
      <point x="182" y="591"/>
      <point x="227" y="591"/>
      <point x="227" y="545"/>
      <point x="364" y="545"/>
      <point x="364" y="591"/>
      <point x="409" y="591"/>
      <point x="409" y="636"/>
      <point x="455" y="636"/>
      <point x="455" y="682"/>
      <point x="500" y="682"/>
      <point x="500" y="727"/>
      <point x="409" y="727"/>
      <point x="409" y="682"/>
      <point x="318" y="682"/>
      <point x="318" y="636"/>
      <point x="273" y="636"/>
      <point x="273" y="682"/>
      <point x="182" y="682"/>
      <point x="182" y="727"/>
      <point x="91" y="727"/>
    </contour>
    <contour>
      <point x="45" y="-91"/>
      <point x="91" y="-91"/>
      <point x="91" y="-136"/>
      <point x="136" y="-136"/>
      <point x="136" y="-182"/>
      <point x="409" y="-182"/>
      <point x="409" y="-136"/>
      <point x="455" y="-136"/>
      <point x="455" y="-91"/>
      <point x="500" y="-91"/>
      <point x="500" y="500"/>
      <point x="409" y="500"/>
      <point x="409" y="455"/>
      <point x="364" y="455"/>
      <point x="364" y="500"/>
      <point x="182" y="500"/>
      <point x="182" y="455"/>
      <point x="91" y="455"/>
      <point x="91" y="364"/>
      <point x="45" y="364"/>
      <point x="45" y="136"/>
      <point x="91" y="136"/>
      <point x="91" y="45"/>
      <point x="182" y="45"/>
      <point x="182" y="0"/>
      <point x="364" y="0"/>
      <point x="364" y="45"/>
      <point x="409" y="45"/>
      <point x="409" y="-45"/>
      <point x="364" y="-45"/>
      <point x="364" y="-91"/>
      <point x="182" y="-91"/>
      <point x="182" y="-45"/>
      <point x="136" y="-45"/>
      <point x="136" y="0"/>
      <point x="45" y="0"/>
    </contour>
    <contour>
      <point x="136" y="318"/>
      <point x="182" y="318"/>
      <point x="182" y="409"/>
      <point x="364" y="409"/>
      <point x="364" y="364"/>
      <point x="409" y="364"/>
      <point x="409" y="136"/>
      <point x="364" y="136"/>
      <point x="364" y="91"/>
      <point x="182" y="91"/>
      <point x="182" y="182"/>
      <point x="136" y="182"/>
    </contour>
  </outline>
</glyph>
<glyph name="circumflex" format="2">
  <advance width="409"/>
  <unicode hex="02C6"/>
  <outline>
    <contour>
      <point x="0" y="545"/>
      <point x="91" y="545"/>
      <point x="91" y="591"/>
      <point x="182" y="591"/>
      <point x="182" y="636"/>
      <point x="227" y="636"/>
      <point x="227" y="591"/>
      <point x="318" y="591"/>
      <point x="318" y="545"/>
      <point x="409" y="545"/>
      <point x="409" y="591"/>
      <point x="364" y="591"/>
      <point x="364" y="636"/>
      <point x="318" y="636"/>
      <point x="318" y="682"/>
      <point x="273" y="682"/>
      <point x="273" y="727"/>
      <point x="136" y="727"/>
      <point x="136" y="682"/>
      <point x="91" y="682"/>
      <point x="91" y="636"/>
      <point x="45" y="636"/>
      <point x="45" y="591"/>
      <point x="0" y="591"/>
    </contour>
  </outline>
</glyph>
<glyph name="caron" format="2">
  <advance width="409"/>
  <unicode hex="02C7"/>
  <outline>
    <contour>
      <point x="0" y="682"/>
      <point x="45" y="682"/>
      <point x="45" y="636"/>
      <point x="91" y="636"/>
      <point x="91" y="591"/>
      <point x="136" y="591"/>
      <point x="136" y="545"/>
      <point x="273" y="545"/>
      <point x="273" y="591"/>
      <point x="318" y="591"/>
      <point x="318" y="636"/>
      <point x="364" y="636"/>
      <point x="364" y="682"/>
      <point x="409" y="682"/>
      <point x="409" y="727"/>
      <point x="318" y="727"/>
      <point x="318" y="682"/>
      <point x="227" y="682"/>
      <point x="227" y="636"/>
      <point x="182" y="636"/>
      <point x="182" y="682"/>
      <point x="91" y="682"/>
      <point x="91" y="727"/>
      <point x="0" y="727"/>
    </contour>
  </outline>
</glyph>
<glyph name="breve" format="2">
  <advance width="455"/>
  <unicode hex="02D8"/>
  <outline>
    <contour>
      <point x="45" y="636"/>
      <point x="91" y="636"/>
      <point x="91" y="591"/>
      <point x="136" y="591"/>
      <point x="136" y="545"/>
      <point x="318" y="545"/>
      <point x="318" y="591"/>
      <point x="364" y="591"/>
      <point x="364" y="636"/>
      <point x="409" y="636"/>
      <point x="409" y="727"/>
      <point x="318" y="727"/>
      <point x="318" y="636"/>
      <point x="136" y="636"/>
      <point x="136" y="727"/>
      <point x="45" y="727"/>
    </contour>
  </outline>
</glyph>
<glyph name="dotaccent" format="2">
  <advance width="182"/>
  <unicode hex="02D9"/>
  <outline>
    <contour>
      <point x="45" y="591"/>
      <point x="136" y="591"/>
      <point x="136" y="727"/>
      <point x="45" y="727"/>
    </contour>
  </outline>
</glyph>
<glyph name="ring" format="2">
  <advance width="409"/>
  <unicode hex="02DA"/>
  <outline>
    <contour>
      <point x="45" y="591"/>
      <point x="91" y="591"/>
      <point x="91" y="545"/>
      <point x="318" y="545"/>
      <point x="318" y="591"/>
      <point x="364" y="591"/>
      <point x="364" y="773"/>
      <point x="318" y="773"/>
      <point x="318" y="818"/>
      <point x="91" y="818"/>
      <point x="91" y="773"/>
      <point x="45" y="773"/>
    </contour>
    <contour>
      <point x="136" y="727"/>
      <point x="273" y="727"/>
      <point x="273" y="636"/>
      <point x="136" y="636"/>
    </contour>
  </outline>
</glyph>
<glyph name="ogonek" format="2">
  <advance width="455"/>
  <unicode hex="02DB"/>
  <outline>
    <contour>
      <point x="136" y="-182"/>
      <point x="182" y="-182"/>
      <point x="182" y="-227"/>
      <point x="364" y="-227"/>
      <point x="364" y="-136"/>
      <point x="227" y="-136"/>
      <point x="227" y="-45"/>
      <point x="273" y="-45"/>
      <point x="273" y="0"/>
      <point x="182" y="0"/>
      <point x="182" y="-45"/>
      <point x="136" y="-45"/>
    </contour>
  </outline>
</glyph>
<glyph name="tilde" format="2">
  <advance width="500"/>
  <unicode hex="02DC"/>
  <outline>
    <contour>
      <point x="45" y="545"/>
      <point x="136" y="545"/>
      <point x="136" y="636"/>
      <point x="227" y="636"/>
      <point x="227" y="591"/>
      <point x="273" y="591"/>
      <point x="273" y="545"/>
      <point x="409" y="545"/>
      <point x="409" y="591"/>
      <point x="455" y="591"/>
      <point x="455" y="727"/>
      <point x="364" y="727"/>
      <point x="364" y="636"/>
      <point x="273" y="636"/>
      <point x="273" y="682"/>
      <point x="227" y="682"/>
      <point x="227" y="727"/>
      <point x="91" y="727"/>
      <point x="91" y="682"/>
      <point x="45" y="682"/>
    </contour>
  </outline>
</glyph>
<glyph name="hungarumlaut" format="2">
  <advance width="409"/>
  <unicode hex="02DD"/>
  <outline>
    <contour>
      <point x="45" y="545"/>
      <point x="136" y="545"/>
      <point x="136" y="591"/>
      <point x="182" y="591"/>
      <point x="182" y="636"/>
      <point x="227" y="636"/>
      <point x="227" y="682"/>
      <point x="136" y="682"/>
      <point x="136" y="636"/>
      <point x="91" y="636"/>
      <point x="91" y="591"/>
      <point x="45" y="591"/>
    </contour>
    <contour>
      <point x="227" y="545"/>
      <point x="318" y="545"/>
      <point x="318" y="591"/>
      <point x="364" y="591"/>
      <point x="364" y="636"/>
      <point x="409" y="636"/>
      <point x="409" y="682"/>
      <point x="318" y="682"/>
      <point x="318" y="636"/>
      <point x="273" y="636"/>
      <point x="273" y="591"/>
      <point x="227" y="591"/>
    </contour>
  </outline>
</glyph>
<glyph name="Wacute" format="2">
  <advance width="818"/>
  <unicode hex="1E82"/>
  <outline>
    <contour>
      <point x="364" y="773"/>
      <point x="500" y="773"/>
      <point x="500" y="818"/>
      <point x="545" y="818"/>
      <point x="545" y="864"/>
      <point x="591" y="864"/>
      <point x="591" y="909"/>
      <point x="455" y="909"/>
      <point x="455" y="864"/>
      <point x="409" y="864"/>
      <point x="409" y="818"/>
      <point x="364" y="818"/>
    </contour>
    <contour>
      <point x="0" y="591"/>
      <point x="45" y="591"/>
      <point x="45" y="364"/>
      <point x="91" y="364"/>
      <point x="91" y="136"/>
      <point x="136" y="136"/>
      <point x="136" y="0"/>
      <point x="273" y="0"/>
      <point x="273" y="136"/>
      <point x="318" y="136"/>
      <point x="318" y="364"/>
      <point x="364" y="364"/>
      <point x="364" y="591"/>
      <point x="409" y="591"/>
      <point x="409" y="364"/>
      <point x="455" y="364"/>
      <point x="455" y="136"/>
      <point x="500" y="136"/>
      <point x="500" y="0"/>
      <point x="636" y="0"/>
      <point x="636" y="136"/>
      <point x="682" y="136"/>
      <point x="682" y="364"/>
      <point x="727" y="364"/>
      <point x="727" y="591"/>
      <point x="773" y="591"/>
      <point x="773" y="727"/>
      <point x="682" y="727"/>
      <point x="682" y="682"/>
      <point x="636" y="682"/>
      <point x="636" y="409"/>
      <point x="591" y="409"/>
      <point x="591" y="136"/>
      <point x="545" y="136"/>
      <point x="545" y="364"/>
      <point x="500" y="364"/>
      <point x="500" y="591"/>
      <point x="455" y="591"/>
      <point x="455" y="727"/>
      <point x="318" y="727"/>
      <point x="318" y="591"/>
      <point x="273" y="591"/>
      <point x="273" y="364"/>
      <point x="227" y="364"/>
      <point x="227" y="136"/>
      <point x="182" y="136"/>
      <point x="182" y="409"/>
      <point x="136" y="409"/>
      <point x="136" y="682"/>
      <point x="91" y="682"/>
      <point x="91" y="727"/>
      <point x="0" y="727"/>
    </contour>
  </outline>
</glyph>
<glyph name="wdieresis" format="2">
  <advance width="773"/>
  <unicode hex="1E85"/>
  <outline>
    <contour>
      <point x="227" y="591"/>
      <point x="318" y="591"/>
      <point x="318" y="727"/>
      <point x="227" y="727"/>
    </contour>
    <contour>
      <point x="455" y="591"/>
      <point x="545" y="591"/>
      <point x="545" y="727"/>
      <point x="455" y="727"/>
    </contour>
    <contour>
      <point x="45" y="364"/>
      <point x="91" y="364"/>
      <point x="91" y="91"/>
      <point x="136" y="91"/>
      <point x="136" y="0"/>
      <point x="273" y="0"/>
      <point x="273" y="91"/>
      <point x="318" y="91"/>
      <point x="318" y="273"/>
      <point x="364" y="273"/>
      <point x="364" y="409"/>
      <point x="409" y="409"/>
      <point x="409" y="273"/>
      <point x="455" y="273"/>
      <point x="455" y="91"/>
      <point x="500" y="91"/>
      <point x="500" y="0"/>
      <point x="636" y="0"/>
      <point x="636" y="91"/>
      <point x="682" y="91"/>
      <point x="682" y="364"/>
      <point x="727" y="364"/>
      <point x="727" y="500"/>
      <point x="636" y="500"/>
      <point x="636" y="409"/>
      <point x="591" y="409"/>
      <point x="591" y="136"/>
      <point x="545" y="136"/>
      <point x="545" y="318"/>
      <point x="500" y="318"/>
      <point x="500" y="455"/>
      <point x="455" y="455"/>
      <point x="455" y="500"/>
      <point x="318" y="500"/>
      <point x="318" y="455"/>
      <point x="273" y="455"/>
      <point x="273" y="318"/>
      <point x="227" y="318"/>
      <point x="227" y="136"/>
      <point x="182" y="136"/>
      <point x="182" y="409"/>
      <point x="136" y="409"/>
      <point x="136" y="500"/>
      <point x="45" y="500"/>
    </contour>
  </outline>
</glyph>
<glyph name="endash" format="2">
  <advance width="455"/>
  <unicode hex="2013"/>
  <outline>
    <contour>
      <point x="45" y="227"/>
      <point x="409" y="227"/>
      <point x="409" y="318"/>
      <point x="45" y="318"/>
    </contour>
  </outline>
</glyph>
<glyph name="emdash" format="2">
  <advance width="909"/>
  <unicode hex="2014"/>
  <outline>
    <contour>
      <point x="45" y="227"/>
      <point x="864" y="227"/>
      <point x="864" y="318"/>
      <point x="45" y="318"/>
    </contour>
  </outline>
</glyph>
<glyph name="quoteleft" format="2">
  <advance width="182"/>
  <unicode hex="2018"/>
  <outline>
    <contour>
      <point x="0" y="545"/>
      <point x="136" y="545"/>
      <point x="136" y="727"/>
      <point x="45" y="727"/>
      <point x="45" y="682"/>
      <point x="0" y="682"/>
    </contour>
  </outline>
</glyph>
<glyph name="quoteright" format="2">
  <advance width="227"/>
  <unicode hex="2019"/>
  <outline>
    <contour>
      <point x="0" y="500"/>
      <point x="91" y="500"/>
      <point x="91" y="591"/>
      <point x="136" y="591"/>
      <point x="136" y="727"/>
      <point x="45" y="727"/>
      <point x="45" y="591"/>
      <point x="0" y="591"/>
    </contour>
  </outline>
</glyph>
<glyph name="Euro" format="2">
  <advance width="727"/>
  <unicode hex="20AC"/>
  <outline>
    <contour>
      <point x="45" y="227"/>
      <point x="136" y="227"/>
      <point x="136" y="182"/>
      <point x="182" y="182"/>
      <point x="182" y="91"/>
      <point x="227" y="91"/>
      <point x="227" y="45"/>
      <point x="318" y="45"/>
      <point x="318" y="0"/>
      <point x="500" y="0"/>
      <point x="500" y="45"/>
      <point x="591" y="45"/>
      <point x="591" y="91"/>
      <point x="636" y="91"/>
      <point x="636" y="182"/>
      <point x="682" y="182"/>
      <point x="682" y="318"/>
      <point x="591" y="318"/>
      <point x="591" y="182"/>
      <point x="545" y="182"/>
      <point x="545" y="136"/>
      <point x="500" y="136"/>
      <point x="500" y="91"/>
      <point x="318" y="91"/>
      <point x="318" y="136"/>
      <point x="273" y="136"/>
      <point x="273" y="227"/>
      <point x="455" y="227"/>
      <point x="455" y="318"/>
      <point x="227" y="318"/>
      <point x="227" y="409"/>
      <point x="455" y="409"/>
      <point x="455" y="500"/>
      <point x="273" y="500"/>
      <point x="273" y="591"/>
      <point x="318" y="591"/>
      <point x="318" y="636"/>
      <point x="500" y="636"/>
      <point x="500" y="591"/>
      <point x="545" y="591"/>
      <point x="545" y="500"/>
      <point x="591" y="500"/>
      <point x="591" y="409"/>
      <point x="682" y="409"/>
      <point x="682" y="545"/>
      <point x="636" y="545"/>
      <point x="636" y="636"/>
      <point x="591" y="636"/>
      <point x="591" y="682"/>
      <point x="500" y="682"/>
      <point x="500" y="727"/>
      <point x="318" y="727"/>
      <point x="318" y="682"/>
      <point x="227" y="682"/>
      <point x="227" y="636"/>
      <point x="182" y="636"/>
      <point x="182" y="545"/>
      <point x="136" y="545"/>
      <point x="136" y="500"/>
      <point x="45" y="500"/>
      <point x="45" y="409"/>
      <point x="136" y="409"/>
      <point x="136" y="318"/>
      <point x="45" y="318"/>
    </contour>
  </outline>
</glyph>
<glyph name="Edotbelow" format="2">
  <advance width="500"/>
  <outline>
    <contour>
      <point x="45" y="0"/>
      <point x="455" y="0"/>
      <point x="455" y="91"/>
      <point x="136" y="91"/>
      <point x="136" y="318"/>
      <point x="455" y="318"/>
      <point x="455" y="409"/>
      <point x="136" y="409"/>
      <point x="136" y="636"/>
      <point x="455" y="636"/>
      <point x="455" y="727"/>
      <point x="45" y="727"/>
    </contour>
    <contour>
      <point x="227" y="-227"/>
      <point x="318" y="-227"/>
      <point x="318" y="-91"/>
      <point x="227" y="-91"/>
    </contour>
  </outline>
</glyph>
<glyph name="Kcommaaccent" format="2">
  <advance width="591"/>
  <outline>
    <contour>
      <point x="45" y="0"/>
      <point x="136" y="0"/>
      <point x="136" y="273"/>
      <point x="182" y="273"/>
      <point x="182" y="318"/>
      <point x="273" y="318"/>
      <point x="273" y="273"/>
      <point x="318" y="273"/>
      <point x="318" y="182"/>
      <point x="364" y="182"/>
      <point x="364" y="136"/>
      <point x="409" y="136"/>
      <point x="409" y="45"/>
      <point x="455" y="45"/>
      <point x="455" y="0"/>
      <point x="591" y="0"/>
      <point x="591" y="45"/>
      <point x="545" y="45"/>
      <point x="545" y="91"/>
      <point x="500" y="91"/>
      <point x="500" y="136"/>
      <point x="455" y="136"/>
      <point x="455" y="227"/>
      <point x="409" y="227"/>
      <point x="409" y="273"/>
      <point x="364" y="273"/>
      <point x="364" y="364"/>
      <point x="318" y="364"/>
      <point x="318" y="455"/>
      <point x="364" y="455"/>
      <point x="364" y="500"/>
      <point x="409" y="500"/>
      <point x="409" y="545"/>
      <point x="455" y="545"/>
      <point x="455" y="591"/>
      <point x="500" y="591"/>
      <point x="500" y="636"/>
      <point x="545" y="636"/>
      <point x="545" y="682"/>
      <point x="591" y="682"/>
      <point x="591" y="727"/>
      <point x="455" y="727"/>
      <point x="455" y="682"/>
      <point x="409" y="682"/>
      <point x="409" y="636"/>
      <point x="364" y="636"/>
      <point x="364" y="591"/>
      <point x="318" y="591"/>
      <point x="318" y="545"/>
      <point x="273" y="545"/>
      <point x="273" y="500"/>
      <point x="227" y="500"/>
      <point x="227" y="455"/>
      <point x="182" y="455"/>
      <point x="182" y="409"/>
      <point x="136" y="409"/>
      <point x="136" y="727"/>
      <point x="45" y="727"/>
    </contour>
    <contour>
      <point x="227" y="-227"/>
      <point x="318" y="-227"/>
      <point x="318" y="-182"/>
      <point x="364" y="-182"/>
      <point x="364" y="-45"/>
      <point x="273" y="-45"/>
      <point x="273" y="-182"/>
      <point x="227" y="-182"/>
    </contour>
  </outline>
</glyph>
<glyph name="Lcommaaccent" format="2">
  <advance width="455"/>
  <outline>
    <contour>
      <point x="45" y="0"/>
      <point x="455" y="0"/>
      <point x="455" y="91"/>
      <point x="136" y="91"/>
      <point x="136" y="727"/>
      <point x="45" y="727"/>
    </contour>
    <contour>
      <point x="182" y="-227"/>
      <point x="273" y="-227"/>
      <point x="273" y="-182"/>
      <point x="318" y="-182"/>
      <point x="318" y="-45"/>
      <point x="227" y="-45"/>
      <point x="227" y="-182"/>
      <point x="182" y="-182"/>
    </contour>
  </outline>
</glyph>
<glyph name="Ncommaaccent" format="2">
  <advance width="636"/>
  <outline>
    <contour>
      <point x="45" y="0"/>
      <point x="136" y="0"/>
      <point x="136" y="545"/>
      <point x="182" y="545"/>
      <point x="182" y="455"/>
      <point x="227" y="455"/>
      <point x="227" y="364"/>
      <point x="273" y="364"/>
      <point x="273" y="318"/>
      <point x="318" y="318"/>
      <point x="318" y="227"/>
      <point x="364" y="227"/>
      <point x="364" y="136"/>
      <point x="409" y="136"/>
      <point x="409" y="91"/>
      <point x="455" y="91"/>
      <point x="455" y="0"/>
      <point x="591" y="0"/>
      <point x="591" y="727"/>
      <point x="500" y="727"/>
      <point x="500" y="182"/>
      <point x="455" y="182"/>
      <point x="455" y="273"/>
      <point x="409" y="273"/>
      <point x="409" y="364"/>
      <point x="364" y="364"/>
      <point x="364" y="409"/>
      <point x="318" y="409"/>
      <point x="318" y="500"/>
      <point x="273" y="500"/>
      <point x="273" y="591"/>
      <point x="227" y="591"/>
      <point x="227" y="636"/>
      <point x="182" y="636"/>
      <point x="182" y="727"/>
      <point x="45" y="727"/>
    </contour>
    <contour>
      <point x="227" y="-227"/>
      <point x="318" y="-227"/>
      <point x="318" y="-182"/>
      <point x="364" y="-182"/>
      <point x="364" y="-45"/>
      <point x="273" y="-45"/>
      <point x="273" y="-182"/>
      <point x="227" y="-182"/>
    </contour>
  </outline>
</glyph>
<glyph name="Rcommaaccent" format="2">
  <advance width="636"/>
  <outline>
    <contour>
      <point x="45" y="0"/>
      <point x="136" y="0"/>
      <point x="136" y="273"/>
      <point x="364" y="273"/>
      <point x="364" y="227"/>
      <point x="409" y="227"/>
      <point x="409" y="136"/>
      <point x="455" y="136"/>
      <point x="455" y="45"/>
      <point x="500" y="45"/>
      <point x="500" y="0"/>
      <point x="591" y="0"/>
      <point x="591" y="45"/>
      <point x="545" y="45"/>
      <point x="545" y="136"/>
      <point x="500" y="136"/>
      <point x="500" y="227"/>
      <point x="455" y="227"/>
      <point x="455" y="273"/>
      <point x="409" y="273"/>
      <point x="409" y="318"/>
      <point x="455" y="318"/>
      <point x="455" y="364"/>
      <point x="500" y="364"/>
      <point x="500" y="409"/>
      <point x="545" y="409"/>
      <point x="545" y="636"/>
      <point x="500" y="636"/>
      <point x="500" y="682"/>
      <point x="409" y="682"/>
      <point x="409" y="727"/>
      <point x="45" y="727"/>
    </contour>
    <contour>
      <point x="227" y="-227"/>
      <point x="318" y="-227"/>
      <point x="318" y="-182"/>
      <point x="364" y="-182"/>
      <point x="364" y="-45"/>
      <point x="273" y="-45"/>
      <point x="273" y="-182"/>
      <point x="227" y="-182"/>
    </contour>
    <contour>
      <point x="136" y="636"/>
      <point x="409" y="636"/>
      <point x="409" y="591"/>
      <point x="455" y="591"/>
      <point x="455" y="409"/>
      <point x="409" y="409"/>
      <point x="409" y="364"/>
      <point x="136" y="364"/>
    </contour>
  </outline>
</glyph>
<glyph name="Udotbelow" format="2">
  <advance width="636"/>
  <outline>
    <contour>
      <point x="45" y="182"/>
      <point x="91" y="182"/>
      <point x="91" y="91"/>
      <point x="136" y="91"/>
      <point x="136" y="45"/>
      <point x="182" y="45"/>
      <point x="182" y="0"/>
      <point x="455" y="0"/>
      <point x="455" y="45"/>
      <point x="500" y="45"/>
      <point x="500" y="91"/>
      <point x="545" y="91"/>
      <point x="545" y="182"/>
      <point x="591" y="182"/>
      <point x="591" y="727"/>
      <point x="500" y="727"/>
      <point x="500" y="182"/>
      <point x="455" y="182"/>
      <point x="455" y="136"/>
      <point x="409" y="136"/>
      <point x="409" y="91"/>
      <point x="227" y="91"/>
      <point x="227" y="136"/>
      <point x="182" y="136"/>
      <point x="182" y="182"/>
      <point x="136" y="182"/>
      <point x="136" y="727"/>
      <point x="45" y="727"/>
    </contour>
    <contour>
      <point x="273" y="-227"/>
      <point x="364" y="-227"/>
      <point x="364" y="-91"/>
      <point x="273" y="-91"/>
    </contour>
  </outline>
</glyph>
<glyph name=".notdef" format="2">
  <advance width="455"/>
  <outline>
    <contour>
      <point x="45" y="-182"/>
      <point x="409" y="-182"/>
      <point x="409" y="727"/>
      <point x="45" y="727"/>
    </contour>
    <contour>
      <point x="91" y="682"/>
      <point x="364" y="682"/>
      <point x="364" y="-136"/>
      <point x="91" y="-136"/>
    </contour>
  </outline>
</glyph>
<glyph name="acute.case" format="2">
  <advance width="500"/>
  <outline>
    <contour>
      <point x="227" y="773"/>
      <point x="364" y="773"/>
      <point x="364" y="818"/>
      <point x="409" y="818"/>
      <point x="409" y="864"/>
      <point x="455" y="864"/>
      <point x="455" y="909"/>
      <point x="318" y="909"/>
      <point x="318" y="864"/>
      <point x="273" y="864"/>
      <point x="273" y="818"/>
      <point x="227" y="818"/>
    </contour>
  </outline>
</glyph>
<glyph name="adotbelow" format="2">
  <advance width="500"/>
  <outline>
    <contour>
      <point x="45" y="45"/>
      <point x="91" y="45"/>
      <point x="91" y="0"/>
      <point x="318" y="0"/>
      <point x="318" y="45"/>
      <point x="364" y="45"/>
      <point x="364" y="0"/>
      <point x="455" y="0"/>
      <point x="455" y="409"/>
      <point x="409" y="409"/>
      <point x="409" y="455"/>
      <point x="364" y="455"/>
      <point x="364" y="500"/>
      <point x="136" y="500"/>
      <point x="136" y="455"/>
      <point x="91" y="455"/>
      <point x="91" y="409"/>
      <point x="45" y="409"/>
      <point x="45" y="318"/>
      <point x="136" y="318"/>
      <point x="136" y="364"/>
      <point x="182" y="364"/>
      <point x="182" y="409"/>
      <point x="318" y="409"/>
      <point x="318" y="364"/>
      <point x="364" y="364"/>
      <point x="364" y="273"/>
      <point x="136" y="273"/>
      <point x="136" y="227"/>
      <point x="91" y="227"/>
      <point x="91" y="182"/>
      <point x="45" y="182"/>
    </contour>
    <contour>
      <point x="227" y="-227"/>
      <point x="318" y="-227"/>
      <point x="318" y="-91"/>
      <point x="227" y="-91"/>
    </contour>
    <contour>
      <point x="136" y="182"/>
      <point x="364" y="182"/>
      <point x="364" y="136"/>
      <point x="318" y="136"/>
      <point x="318" y="91"/>
      <point x="136" y="91"/>
    </contour>
  </outline>
</glyph>
<glyph name="bracketright.case" format="2">
  <advance width="364"/>
  <outline>
    <contour>
      <point x="0" y="-182"/>
      <point x="273" y="-182"/>
      <point x="273" y="727"/>
      <point x="0" y="727"/>
      <point x="0" y="636"/>
      <point x="182" y="636"/>
      <point x="182" y="-136"/>
      <point x="0" y="-136"/>
    </contour>
  </outline>
</glyph>
<glyph name="caron.alt" format="2">
  <advance width="455"/>
  <outline>
    <contour>
      <point x="136" y="591"/>
      <point x="227" y="591"/>
      <point x="227" y="682"/>
      <point x="273" y="682"/>
      <point x="273" y="773"/>
      <point x="182" y="773"/>
      <point x="182" y="682"/>
      <point x="136" y="682"/>
    </contour>
  </outline>
</glyph>
<glyph name="caron.case" format="2">
  <advance width="409"/>
  <outline>
    <contour>
      <point x="0" y="909"/>
      <point x="45" y="909"/>
      <point x="45" y="864"/>
      <point x="91" y="864"/>
      <point x="91" y="818"/>
      <point x="136" y="818"/>
      <point x="136" y="773"/>
      <point x="273" y="773"/>
      <point x="273" y="818"/>
      <point x="318" y="818"/>
      <point x="318" y="864"/>
      <point x="364" y="864"/>
      <point x="364" y="909"/>
      <point x="409" y="909"/>
      <point x="409" y="955"/>
      <point x="318" y="955"/>
      <point x="318" y="909"/>
      <point x="227" y="909"/>
      <point x="227" y="864"/>
      <point x="182" y="864"/>
      <point x="182" y="909"/>
      <point x="91" y="909"/>
      <point x="91" y="955"/>
      <point x="0" y="955"/>
    </contour>
  </outline>
</glyph>
<glyph name="circumflex.case" format="2">
  <advance width="409"/>
  <outline>
    <contour>
      <point x="0" y="773"/>
      <point x="91" y="773"/>
      <point x="91" y="818"/>
      <point x="182" y="818"/>
      <point x="182" y="864"/>
      <point x="227" y="864"/>
      <point x="227" y="818"/>
      <point x="318" y="818"/>
      <point x="318" y="773"/>
      <point x="409" y="773"/>
      <point x="409" y="818"/>
      <point x="364" y="818"/>
      <point x="364" y="864"/>
      <point x="318" y="864"/>
      <point x="318" y="909"/>
      <point x="273" y="909"/>
      <point x="273" y="955"/>
      <point x="136" y="955"/>
      <point x="136" y="909"/>
      <point x="91" y="909"/>
      <point x="91" y="864"/>
      <point x="45" y="864"/>
      <point x="45" y="818"/>
      <point x="0" y="818"/>
    </contour>
  </outline>
</glyph>
<glyph name="commaaccent" format="2">
  <advance width="182"/>
  <outline>
    <contour>
      <point x="0" y="-227"/>
      <point x="91" y="-227"/>
      <point x="91" y="-182"/>
      <point x="136" y="-182"/>
      <point x="136" y="-45"/>
      <point x="45" y="-45"/>
      <point x="45" y="-182"/>
      <point x="0" y="-182"/>
    </contour>
  </outline>
</glyph>
<glyph name="commaturnedabove" format="2">
  <advance width="182"/>
  <outline>
    <contour>
      <point x="45" y="591"/>
      <point x="136" y="591"/>
      <point x="136" y="727"/>
      <point x="182" y="727"/>
      <point x="182" y="773"/>
      <point x="91" y="773"/>
      <point x="91" y="727"/>
      <point x="45" y="727"/>
    </contour>
  </outline>
</glyph>
<glyph name="dieresis.case" format="2">
  <advance width="409"/>
  <outline>
    <contour>
      <point x="45" y="773"/>
      <point x="136" y="773"/>
      <point x="136" y="909"/>
      <point x="45" y="909"/>
    </contour>
    <contour>
      <point x="273" y="773"/>
      <point x="364" y="773"/>
      <point x="364" y="909"/>
      <point x="273" y="909"/>
    </contour>
  </outline>
</glyph>
<glyph name="dotaccent.case" format="2">
  <advance width="182"/>
  <outline>
    <contour>
      <point x="45" y="773"/>
      <point x="136" y="773"/>
      <point x="136" y="909"/>
      <point x="45" y="909"/>
    </contour>
  </outline>
</glyph>
<glyph name="dotbelow" format="2">
  <advance width="182"/>
  <outline>
    <contour>
      <point x="45" y="-227"/>
      <point x="136" y="-227"/>
      <point x="136" y="-91"/>
      <point x="45" y="-91"/>
    </contour>
  </outline>
</glyph>
<glyph name="dotlessj" format="2">
  <advance width="182"/>
  <outline>
    <contour>
      <point x="-45" y="-182"/>
      <point x="91" y="-182"/>
      <point x="91" y="-136"/>
      <point x="136" y="-136"/>
      <point x="136" y="500"/>
      <point x="45" y="500"/>
      <point x="45" y="-91"/>
      <point x="-45" y="-91"/>
    </contour>
  </outline>
</glyph>
<glyph name="grave.case" format="2">
  <advance width="273"/>
  <outline>
    <contour>
      <point x="0" y="864"/>
      <point x="45" y="864"/>
      <point x="45" y="818"/>
      <point x="91" y="818"/>
      <point x="91" y="773"/>
      <point x="227" y="773"/>
      <point x="227" y="818"/>
      <point x="182" y="818"/>
      <point x="182" y="864"/>
      <point x="136" y="864"/>
      <point x="136" y="909"/>
      <point x="0" y="909"/>
    </contour>
  </outline>
</glyph>
<glyph name="hungarumlaut.case" format="2">
  <advance width="409"/>
  <outline>
    <contour>
      <point x="45" y="773"/>
      <point x="136" y="773"/>
      <point x="136" y="818"/>
      <point x="182" y="818"/>
      <point x="182" y="864"/>
      <point x="227" y="864"/>
      <point x="227" y="909"/>
      <point x="136" y="909"/>
      <point x="136" y="864"/>
      <point x="91" y="864"/>
      <point x="91" y="818"/>
      <point x="45" y="818"/>
    </contour>
    <contour>
      <point x="227" y="773"/>
      <point x="318" y="773"/>
      <point x="318" y="818"/>
      <point x="364" y="818"/>
      <point x="364" y="864"/>
      <point x="409" y="864"/>
      <point x="409" y="909"/>
      <point x="318" y="909"/>
      <point x="318" y="864"/>
      <point x="273" y="864"/>
      <point x="273" y="818"/>
      <point x="227" y="818"/>
    </contour>
  </outline>
</glyph>
<glyph name="idotbelow" format="2">
  <advance width="182"/>
  <outline>
    <contour>
      <point x="45" y="591"/>
      <point x="136" y="591"/>
      <point x="136" y="727"/>
      <point x="45" y="727"/>
    </contour>
    <contour>
      <point x="45" y="0"/>
      <point x="136" y="0"/>
      <point x="136" y="500"/>
      <point x="45" y="500"/>
    </contour>
    <contour>
      <point x="45" y="-227"/>
      <point x="136" y="-227"/>
      <point x="136" y="-91"/>
      <point x="45" y="-91"/>
    </contour>
  </outline>
</glyph>
<glyph name="lcommaaccent" format="2">
  <advance width="182"/>
  <outline>
    <contour>
      <point x="45" y="0"/>
      <point x="136" y="0"/>
      <point x="136" y="727"/>
      <point x="45" y="727"/>
    </contour>
    <contour>
      <point x="0" y="-227"/>
      <point x="91" y="-227"/>
      <point x="91" y="-182"/>
      <point x="136" y="-182"/>
      <point x="136" y="-45"/>
      <point x="45" y="-45"/>
      <point x="45" y="-182"/>
      <point x="0" y="-182"/>
    </contour>
  </outline>
</glyph>
<glyph name="macron.case" format="2">
  <advance width="455"/>
  <outline>
    <contour>
      <point x="45" y="773"/>
      <point x="409" y="773"/>
      <point x="409" y="864"/>
      <point x="45" y="864"/>
    </contour>
  </outline>
</glyph>
<glyph name="ncommaaccent" format="2">
  <advance width="545"/>
  <outline>
    <contour>
      <point x="45" y="0"/>
      <point x="136" y="0"/>
      <point x="136" y="364"/>
      <point x="182" y="364"/>
      <point x="182" y="409"/>
      <point x="364" y="409"/>
      <point x="364" y="318"/>
      <point x="409" y="318"/>
      <point x="409" y="0"/>
      <point x="500" y="0"/>
      <point x="500" y="364"/>
      <point x="455" y="364"/>
      <point x="455" y="455"/>
      <point x="364" y="455"/>
      <point x="364" y="500"/>
      <point x="182" y="500"/>
      <point x="182" y="455"/>
      <point x="136" y="455"/>
      <point x="136" y="500"/>
      <point x="45" y="500"/>
    </contour>
    <contour>
      <point x="182" y="-227"/>
      <point x="273" y="-227"/>
      <point x="273" y="-182"/>
      <point x="318" y="-182"/>
      <point x="318" y="-45"/>
      <point x="227" y="-45"/>
      <point x="227" y="-182"/>
      <point x="182" y="-182"/>
    </contour>
  </outline>
</glyph>
<glyph name="parenleft.case" format="2">
  <advance width="409"/>
  <outline>
    <contour>
      <point x="45" y="-91"/>
      <point x="91" y="-91"/>
      <point x="91" y="-136"/>
      <point x="136" y="-136"/>
      <point x="136" y="-182"/>
      <point x="318" y="-182"/>
      <point x="318" y="-136"/>
      <point x="227" y="-136"/>
      <point x="227" y="-91"/>
      <point x="136" y="-91"/>
      <point x="136" y="591"/>
      <point x="182" y="591"/>
      <point x="182" y="636"/>
      <point x="318" y="636"/>
      <point x="318" y="727"/>
      <point x="227" y="727"/>
      <point x="227" y="682"/>
      <point x="136" y="682"/>
      <point x="136" y="636"/>
      <point x="91" y="636"/>
      <point x="91" y="591"/>
      <point x="45" y="591"/>
    </contour>
  </outline>
</glyph>
<glyph name="parenright.case" format="2">
  <advance width="364"/>
  <outline>
    <contour>
      <point x="0" y="-182"/>
      <point x="182" y="-182"/>
      <point x="182" y="-136"/>
      <point x="227" y="-136"/>
      <point x="227" y="-91"/>
      <point x="273" y="-91"/>
      <point x="273" y="591"/>
      <point x="227" y="591"/>
      <point x="227" y="682"/>
      <point x="91" y="682"/>
      <point x="91" y="727"/>
      <point x="0" y="727"/>
      <point x="0" y="636"/>
      <point x="136" y="636"/>
      <point x="136" y="591"/>
      <point x="182" y="591"/>
      <point x="182" y="-91"/>
      <point x="136" y="-91"/>
      <point x="136" y="-136"/>
      <point x="0" y="-136"/>
    </contour>
  </outline>
</glyph>
<glyph name="rcommaaccent" format="2">
  <advance width="318"/>
  <outline>
    <contour>
      <point x="45" y="0"/>
      <point x="136" y="0"/>
      <point x="136" y="364"/>
      <point x="182" y="364"/>
      <point x="182" y="409"/>
      <point x="318" y="409"/>
      <point x="318" y="500"/>
      <point x="182" y="500"/>
      <point x="182" y="455"/>
      <point x="136" y="455"/>
      <point x="136" y="500"/>
      <point x="45" y="500"/>
    </contour>
    <contour>
      <point x="0" y="-227"/>
      <point x="91" y="-227"/>
      <point x="91" y="-182"/>
      <point x="136" y="-182"/>
      <point x="136" y="-45"/>
      <point x="45" y="-45"/>
      <point x="45" y="-182"/>
      <point x="0" y="-182"/>
    </contour>
  </outline>
</glyph>
<glyph name="ring.case" format="2">
  <advance width="409"/>
  <outline>
    <contour>
      <point x="45" y="818"/>
      <point x="91" y="818"/>
      <point x="91" y="773"/>
      <point x="318" y="773"/>
      <point x="318" y="818"/>
      <point x="364" y="818"/>
      <point x="364" y="1000"/>
      <point x="318" y="1000"/>
      <point x="318" y="1045"/>
      <point x="91" y="1045"/>
      <point x="91" y="1000"/>
      <point x="45" y="1000"/>
    </contour>
    <contour>
      <point x="136" y="955"/>
      <point x="273" y="955"/>
      <point x="273" y="864"/>
      <point x="136" y="864"/>
    </contour>
  </outline>
</glyph>
<glyph name="tilde.case" format="2">
  <advance width="500"/>
  <outline>
    <contour>
      <point x="45" y="773"/>
      <point x="136" y="773"/>
      <point x="136" y="864"/>
      <point x="227" y="864"/>
      <point x="227" y="818"/>
      <point x="273" y="818"/>
      <point x="273" y="773"/>
      <point x="409" y="773"/>
      <point x="409" y="818"/>
      <point x="455" y="818"/>
      <point x="455" y="955"/>
      <point x="364" y="955"/>
      <point x="364" y="864"/>
      <point x="273" y="864"/>
      <point x="273" y="909"/>
      <point x="227" y="909"/>
      <point x="227" y="955"/>
      <point x="91" y="955"/>
      <point x="91" y="909"/>
      <point x="45" y="909"/>
    </contour>
  </outline>
</glyph>
<glyph name="udotbelow" format="2">
  <advance width="545"/>
  <outline>
    <contour>
      <point x="45" y="136"/>
      <point x="91" y="136"/>
      <point x="91" y="45"/>
      <point x="136" y="45"/>
      <point x="136" y="0"/>
      <point x="364" y="0"/>
      <point x="364" y="45"/>
      <point x="409" y="45"/>
      <point x="409" y="0"/>
      <point x="500" y="0"/>
      <point x="500" y="500"/>
      <point x="409" y="500"/>
      <point x="409" y="136"/>
      <point x="364" y="136"/>
      <point x="364" y="91"/>
      <point x="182" y="91"/>
      <point x="182" y="136"/>
      <point x="136" y="136"/>
      <point x="136" y="500"/>
      <point x="45" y="500"/>
    </contour>
    <contour>
      <point x="227" y="-227"/>
      <point x="318" y="-227"/>
      <point x="318" y="-91"/>
      <point x="227" y="-91"/>
    </contour>
  </outline>
</glyph>
<glyph name="ytilde" format="2">
  <advance width="591"/>
  <outline>
    <contour>
      <point x="91" y="545"/>
      <point x="182" y="545"/>
      <point x="182" y="636"/>
      <point x="273" y="636"/>
      <point x="273" y="591"/>
      <point x="318" y="591"/>
      <point x="318" y="545"/>
      <point x="455" y="545"/>
      <point x="455" y="591"/>
      <point x="500" y="591"/>
      <point x="500" y="727"/>
      <point x="409" y="727"/>
      <point x="409" y="636"/>
      <point x="318" y="636"/>
      <point x="318" y="682"/>
      <point x="273" y="682"/>
      <point x="273" y="727"/>
      <point x="136" y="727"/>
      <point x="136" y="682"/>
      <point x="91" y="682"/>
    </contour>
    <contour>
      <point x="45" y="-182"/>
      <point x="227" y="-182"/>
      <point x="227" y="-136"/>
      <point x="273" y="-136"/>
      <point x="273" y="-91"/>
      <point x="318" y="-91"/>
      <point x="318" y="45"/>
      <point x="364" y="45"/>
      <point x="364" y="136"/>
      <point x="409" y="136"/>
      <point x="409" y="227"/>
      <point x="455" y="227"/>
      <point x="455" y="364"/>
      <point x="500" y="364"/>
      <point x="500" y="455"/>
      <point x="545" y="455"/>
      <point x="545" y="500"/>
      <point x="409" y="500"/>
      <point x="409" y="364"/>
      <point x="364" y="364"/>
      <point x="364" y="273"/>
      <point x="318" y="273"/>
      <point x="318" y="136"/>
      <point x="273" y="136"/>
      <point x="273" y="273"/>
      <point x="227" y="273"/>
      <point x="227" y="409"/>
      <point x="182" y="409"/>
      <point x="182" y="500"/>
      <point x="45" y="500"/>
      <point x="45" y="455"/>
      <point x="91" y="455"/>
      <point x="91" y="318"/>
      <point x="136" y="318"/>
      <point x="136" y="227"/>
      <point x="182" y="227"/>
      <point x="182" y="136"/>
      <point x="227" y="136"/>
      <point x="227" y="-91"/>
      <point x="45" y="-91"/>
    </contour>
  </outline>
</glyph>
